<svg width="262" height="42" viewBox="0 0 262 42" fill="none" xmlns="http://www.w3.org/2000/svg">
<g clip-path="url(#clip0_16301_10455)">
<mask id="mask0_16301_10455" style="mask-type:luminance" maskUnits="userSpaceOnUse" x="0" y="0" width="45" height="42">
<path d="M44.2393 0.204529H0.215088V41.9977H44.2393V0.204529Z" fill="white"/>
</mask>
<g mask="url(#mask0_16301_10455)">
<path d="M40.455 32.4848C40.4272 32.5051 40.3994 32.5271 40.3699 32.5465C40.3421 32.5672 40.313 32.5866 40.2839 32.6073C40.2296 32.6445 40.1737 32.6808 40.1168 32.7154C40.1102 32.7193 40.1033 32.7234 40.0968 32.7285C40.0504 32.7568 40.0039 32.7851 39.9565 32.8122C39.8862 32.8535 39.8171 32.8924 39.7455 32.9309C39.2601 33.194 38.7495 33.4056 38.2285 33.5927C37.7365 33.768 37.238 33.9217 36.7353 34.0582C36.0154 34.2545 35.2859 34.4168 34.55 34.5587C33.8353 34.698 33.118 34.8154 32.3979 34.9173C31.6779 35.0194 30.9552 35.1044 30.2312 35.1779C29.9938 35.2024 29.7565 35.2243 29.5191 35.2463C29.0431 35.2889 28.567 35.3249 28.091 35.356C27.8523 35.3713 27.6136 35.3856 27.3763 35.3987C26.8419 35.4283 26.3075 35.4502 25.7731 35.4668C25.6763 35.4696 25.5795 35.4735 25.4814 35.476C25.3925 35.4785 25.3037 35.4811 25.2135 35.4836C25.4323 35.2205 25.6511 34.9586 25.8513 34.6815C25.8805 34.6465 25.9096 34.6118 25.9375 34.5755C26.3897 33.9847 26.822 33.3811 27.2357 32.7657C27.2781 32.7632 27.3206 32.7619 27.3617 32.7594C27.6242 32.745 27.8868 32.7285 28.1493 32.7116C28.3482 32.6986 28.5471 32.6846 28.7461 32.669C30.137 32.5646 31.5228 32.4151 32.9018 32.2048C33.3038 32.144 33.7028 32.0769 34.1006 32.0059C35.0315 31.8382 35.9542 31.6371 36.8642 31.3843C37.0643 31.3288 37.2632 31.2708 37.4621 31.2102C37.5615 31.1792 37.661 31.1483 37.7604 31.116C37.9102 31.1418 38.0469 31.2024 38.1872 31.2527C38.3106 31.2966 38.4339 31.343 38.5575 31.3908C38.9062 31.5249 39.2483 31.6732 39.5797 31.8449C39.7108 31.912 39.8397 31.983 39.9669 32.0578C40.1354 32.157 40.2996 32.2614 40.4537 32.3814C40.4988 32.4164 40.5119 32.4304 40.4945 32.451C40.4867 32.4615 40.4736 32.4717 40.4523 32.4873L40.455 32.4848Z" fill="#F1ECE2"/>
<path d="M27.5631 38.716C27.5353 38.7329 27.5048 38.7329 27.4756 38.7227C27.4835 38.7173 27.4902 38.7148 27.4968 38.7122C27.5088 38.7084 27.5194 38.7084 27.5313 38.7084C27.5419 38.7084 27.5538 38.711 27.5644 38.716H27.5631Z" fill="#5E93FF"/>
<path d="M27.4451 38.7227C27.4094 38.738 27.3735 38.7393 27.3351 38.7291C27.3709 38.7084 27.408 38.7109 27.4451 38.7227Z" fill="#5E93FF"/>
<path d="M27.3045 38.7291C27.2687 38.7447 27.2329 38.7459 27.1945 38.7354C27.2303 38.7135 27.2661 38.716 27.3045 38.7291Z" fill="#5E93FF"/>
<path d="M27.164 38.7354C27.1282 38.7523 27.0924 38.7523 27.0553 38.7405C27.0553 38.7405 27.0579 38.7405 27.0593 38.7393C27.0937 38.7227 27.1295 38.7227 27.164 38.7354Z" fill="#5E93FF"/>
<path d="M26.9493 38.7342C26.9731 38.7291 26.9983 38.7316 27.0235 38.7409C26.9877 38.7574 26.9506 38.7574 26.9135 38.7472C26.9254 38.7409 26.9373 38.7367 26.9493 38.7342Z" fill="#5E93FF"/>
<path d="M26.8259 38.7367C26.8445 38.7367 26.863 38.7405 26.8829 38.7459C26.8471 38.7612 26.8113 38.7625 26.7742 38.751C26.7914 38.7405 26.8086 38.7367 26.8259 38.7354V38.7367Z" fill="#5E93FF"/>
<path d="M26.7159 38.7459C26.7251 38.7472 26.7331 38.7498 26.7411 38.7523C26.7066 38.7679 26.6694 38.7692 26.6323 38.7587C26.6575 38.7434 26.684 38.7409 26.7105 38.7459C26.7105 38.7459 26.7119 38.7459 26.7132 38.7459H26.7145H26.7159Z" fill="#5E93FF"/>
<path d="M26.6004 38.7587C26.558 38.7768 26.5142 38.7755 26.4705 38.7638C26.5129 38.7447 26.5566 38.746 26.6004 38.7587Z" fill="#5E93FF"/>
<path d="M26.4387 38.7641C26.4029 38.7819 26.3671 38.7794 26.33 38.7692C26.3644 38.7498 26.4016 38.7498 26.4387 38.7641Z" fill="#5E93FF"/>
<path d="M35.7422 30.5304C35.7592 30.5329 35.7792 30.5329 35.7978 30.5355C35.8217 30.5381 35.8456 30.5446 35.8642 30.5639C35.8151 30.56 35.7674 30.5497 35.7249 30.5265C35.7275 30.5265 35.7314 30.5265 35.734 30.5278C35.737 30.5278 35.7396 30.5278 35.7435 30.5291L35.7422 30.5304Z" fill="#5E93FF"/>
<path d="M15.5467 41.9074C15.5507 41.915 15.5547 41.923 15.5573 41.9294L14.8174 41.9319C14.8214 41.9243 14.8254 41.9163 14.8293 41.9087C14.889 41.9087 14.9487 41.9087 15.0083 41.9087C15.1874 41.9087 15.3664 41.9087 15.5454 41.9087L15.5467 41.9074Z" fill="#3180F4"/>
<path d="M37.7642 31.1147C37.6648 31.1469 37.5667 31.1779 37.4659 31.2089C37.2671 31.2695 37.0682 31.3275 36.868 31.383C35.9571 31.6358 35.0353 31.8369 34.1044 32.0046C33.7067 32.0769 33.3063 32.1427 32.9056 32.2035C31.5267 32.4135 30.141 32.5634 28.75 32.6677C28.5511 32.6833 28.3522 32.6973 28.1533 32.7104C27.8907 32.7272 27.6281 32.7438 27.3656 32.7581C27.3232 32.7606 27.282 32.7619 27.2396 32.7644C27.5247 32.34 27.8019 31.9104 28.0697 31.4746C28.4569 30.8451 28.8269 30.2066 29.1783 29.5591C29.8493 29.6158 30.5189 29.6816 31.1885 29.7616C31.2376 29.7667 31.2867 29.777 31.3371 29.7848C31.6367 29.8054 31.9338 29.8493 32.2295 29.8918C32.61 29.946 32.9907 30.0054 33.3698 30.0673C33.8817 30.1511 34.3936 30.244 34.9015 30.3511C35.176 30.4091 35.4491 30.4684 35.7235 30.5265C35.7673 30.5497 35.8138 30.5587 35.8629 30.5639C36.449 30.7097 37.0335 30.8632 37.6079 31.0476C37.6609 31.0644 37.722 31.0695 37.7629 31.1134L37.7642 31.1147Z" fill="#FDBF41"/>
<path d="M18.2664 35.3147C18.5024 35.3328 18.7397 35.3509 18.9758 35.3662C18.7384 35.3509 18.5024 35.3328 18.2664 35.3147Z" fill="#F1ECE2"/>
<path d="M10.6961 40.4549C10.6775 40.4549 10.6616 40.4498 10.6497 40.4355C10.6497 40.4355 10.6523 40.4355 10.6536 40.4355C10.6563 40.4355 10.6589 40.4355 10.6616 40.4355C10.6642 40.4355 10.6656 40.4371 10.6682 40.4371C10.6695 40.4371 10.6722 40.4371 10.6735 40.4384C10.6762 40.4384 10.6788 40.4409 10.6815 40.4422C10.6815 40.4422 10.6841 40.4422 10.6855 40.4434C10.6881 40.446 10.6908 40.4485 10.6934 40.4511C10.6934 40.4511 10.6934 40.4511 10.6948 40.4511L10.6961 40.4549Z" fill="#404A5A"/>
<path d="M10.6496 40.4355C10.631 40.4355 10.6138 40.4317 10.6031 40.4151C10.6031 40.4151 10.6124 40.4151 10.6164 40.4151H10.6177C10.6297 40.4177 10.6403 40.4228 10.6483 40.4342C10.6483 40.4342 10.6483 40.4342 10.6483 40.4355H10.6496Z" fill="#404A5A"/>
<path d="M10.6032 40.4151C10.5833 40.4151 10.5647 40.4135 10.5568 40.3932C10.5568 40.3932 10.5568 40.3932 10.5568 40.3919H10.5581C10.5766 40.3919 10.5939 40.3957 10.6032 40.4135V40.4151Z" fill="#404A5A"/>
<path d="M10.5568 40.3906V40.3932C10.5382 40.3932 10.5184 40.3957 10.5117 40.3712V40.3687C10.5316 40.3658 10.5488 40.3699 10.5581 40.3906H10.5568Z" fill="#404A5A"/>
<path d="M10.3751 40.2783C10.3884 40.2872 10.4043 40.2939 10.4189 40.3003C10.4295 40.3054 10.4401 40.3092 10.4507 40.3143C10.4693 40.3235 10.4865 40.3349 10.4984 40.3518C10.5024 40.3569 10.5064 40.3645 10.5104 40.3725C10.448 40.3674 10.3937 40.3429 10.3459 40.3041L10.3751 40.2783Z" fill="#404A5A"/>
<path d="M14.6276 38.3345C14.5759 38.3422 14.5242 38.3498 14.4738 38.3574C14.2749 38.3835 14.076 38.3988 13.8758 38.4039C13.8095 38.4052 13.7419 38.4068 13.6756 38.4052C13.6079 38.4052 13.5416 38.4026 13.474 38.4001C13.4448 38.3988 13.417 38.395 13.3878 38.3924C13.3599 38.3899 13.3308 38.3861 13.3016 38.3835C13.2645 38.3807 13.2366 38.3654 13.2088 38.3422C13.1292 38.2725 13.0536 38.2003 12.9794 38.1255C13.5284 38.2028 14.0773 38.2725 14.6276 38.3358V38.3345Z" fill="#F1ECE2"/>
<path d="M23.2656 29.3166C22.8704 29.3166 22.4753 29.3218 22.0801 29.3282C21.4224 30.3202 20.713 31.2773 19.9385 32.1866C19.7754 32.3775 19.611 32.5659 19.4426 32.7517C19.0183 33.2223 18.5754 33.6767 18.1113 34.11C17.7042 34.4893 17.2838 34.8517 16.8449 35.1922C16.5028 35.4591 16.1488 35.7134 15.7814 35.9495C15.1052 36.3854 14.3957 36.7608 13.632 37.0341C13.2448 37.1722 12.8496 37.2845 12.4412 37.3501C12.4186 37.3539 12.3974 37.3631 12.3749 37.3695C12.3762 37.3759 12.3789 37.3838 12.3802 37.3902C12.3815 37.394 12.3829 37.3978 12.3855 37.4016C12.4147 37.4455 12.4438 37.4882 12.4743 37.5295C12.5353 37.6145 12.599 37.6972 12.664 37.7771C12.7621 37.897 12.8669 38.0132 12.9769 38.1242C13.5258 38.2015 14.0748 38.2712 14.6251 38.3345C14.7723 38.3126 14.9182 38.284 15.0627 38.2505C15.3982 38.1732 15.7244 38.0714 16.044 37.9515C16.2031 37.8907 16.3609 37.8261 16.516 37.7564C16.6712 37.6867 16.825 37.6132 16.9775 37.5346C17.0438 37.5012 17.1088 37.4662 17.1751 37.4315C17.6313 37.1878 18.0688 36.9142 18.4879 36.6202C18.9082 36.3246 19.3113 36.0074 19.7025 35.6745C19.7582 35.6268 19.8139 35.5791 19.8696 35.5301C19.9107 35.4941 19.9505 35.4579 19.9929 35.4206C20.2435 35.1973 20.4902 34.9679 20.7302 34.733C20.823 34.6414 20.9145 34.5498 21.006 34.4556C21.307 34.1485 21.6001 33.8351 21.8852 33.5141C22.0562 33.3219 22.2233 33.1256 22.3877 32.9283C22.4076 32.9051 22.4275 32.8806 22.4474 32.8561C22.5601 32.7193 22.6715 32.5815 22.7829 32.4421C23.1316 32.0034 23.4671 31.5559 23.7907 31.0993C23.9657 30.8516 24.1367 30.6027 24.3052 30.3511C24.3993 30.2092 24.4921 30.0674 24.5836 29.9254C24.7096 29.7307 24.8329 29.5333 24.9549 29.3359C24.3914 29.3231 23.8291 29.3166 23.2656 29.3166Z" fill="#F1ECE2"/>
<path d="M8.223 39.3817C8.20446 39.3855 8.18987 39.3804 8.18323 39.361C8.20311 39.3572 8.2177 39.361 8.223 39.3817Z" fill="#C18B00"/>
<path d="M19.916 29.3966C19.6336 29.4095 19.3511 29.425 19.07 29.4417C18.761 29.8674 18.4414 30.2866 18.1073 30.6955C17.7797 31.098 17.4443 31.4927 17.0915 31.8758C16.8913 32.0924 16.6898 32.3079 16.4829 32.5194C16.337 32.669 16.1885 32.8176 16.036 32.962C15.43 33.5386 14.7949 34.083 14.1119 34.5743C13.9979 34.6554 13.8839 34.7356 13.7672 34.8142C13.384 35.0735 12.9875 35.3134 12.5751 35.5288C12.2767 35.6863 11.9691 35.8254 11.6575 35.9533C11.6601 35.9673 11.6575 35.9829 11.6641 35.9972C11.7078 36.1146 11.7543 36.2291 11.8047 36.344C11.8537 36.4589 11.9067 36.5712 11.9625 36.6819C12.0738 36.904 12.1985 37.1207 12.3337 37.3323L12.3364 37.3348C12.3457 37.3475 12.3616 37.3593 12.3735 37.3708C12.3961 37.3644 12.4173 37.3555 12.4398 37.3514C12.8469 37.2858 13.2421 37.1735 13.6306 37.0354C14.3944 36.7634 15.1038 36.3866 15.7801 35.9507C16.1474 35.7146 16.5015 35.4604 16.8436 35.1934C17.2825 34.8517 17.7028 34.4893 18.1099 34.1113C18.5754 33.6779 19.0169 33.2239 19.4413 32.753C19.6097 32.5672 19.7741 32.3788 19.9372 32.1879C20.7116 31.2786 21.421 30.3214 22.0788 29.3295C21.3574 29.3424 20.6347 29.3631 19.9147 29.3979L19.916 29.3966Z" fill="#FDBF41"/>
<path d="M34.1764 18.8076C34.1764 18.8076 34.1679 18.8064 34.1639 18.8064C34.1679 18.8064 34.1715 18.8063 34.1764 18.8076Z" fill="#E7AA24"/>
<path d="M34.0992 18.8373C34.1217 18.8373 34.1469 18.8373 34.1322 18.8025C34.143 18.8025 34.1535 18.8051 34.1656 18.8064C34.1587 18.8064 34.1535 18.8076 34.1495 18.8102C34.1404 18.8167 34.1404 18.8309 34.143 18.8476C34.1283 18.8476 34.1139 18.8463 34.0992 18.845C34.0913 18.845 34.0818 18.8437 34.074 18.8425C34.0567 18.8412 34.038 18.8386 34.021 18.8373C33.9811 18.8321 33.9399 18.8244 33.9016 18.8154C33.9693 18.8115 34.0341 18.8347 34.1005 18.8386L34.0992 18.8373Z" fill="#E7AA24"/>
<path d="M13.5258 32.1338C13.555 32.1389 13.5829 32.1427 13.6107 32.1478C13.0577 32.6677 12.4769 33.1555 11.8577 33.6016C11.6322 33.7642 11.4068 33.9268 11.1628 34.0649C11.1177 33.8752 11.0978 33.6818 11.0753 33.4883C10.9984 32.8717 10.9692 32.2525 10.9679 31.6333C11.1217 31.6694 11.2755 31.7042 11.4307 31.7391C11.8829 31.8398 12.3364 31.9286 12.7912 32.01C13.0365 32.054 13.2818 32.095 13.5272 32.1351L13.5258 32.1338Z" fill="#F1ECE2"/>
<path d="M16.0572 29.6919C15.9922 29.6997 15.9259 29.7048 15.8596 29.7112C15.2072 30.5188 14.511 31.2888 13.7552 32.01C13.7075 32.0562 13.6584 32.1014 13.6107 32.1465C13.6332 32.1504 13.6558 32.1545 13.677 32.1583C13.6544 32.1545 13.6332 32.1504 13.6107 32.1478C13.0577 32.6677 12.4769 33.1552 11.8577 33.6016C11.6322 33.7642 11.4068 33.9268 11.1628 34.0649C11.1655 34.0906 11.1668 34.1177 11.1695 34.1435C11.1695 34.1511 11.1695 34.1575 11.1721 34.1654C11.1774 34.195 11.1841 34.2246 11.1894 34.2542C11.1933 34.279 11.1973 34.3019 11.2026 34.3267C11.2146 34.3859 11.2265 34.4467 11.2384 34.5071C11.3087 34.8476 11.3922 35.1842 11.497 35.5158C11.5447 35.6644 11.5832 35.8165 11.6601 35.9558C11.9717 35.8279 12.2794 35.6889 12.5777 35.5314C12.9901 35.3147 13.3866 35.0748 13.7698 34.8167C13.8865 34.7394 14.0005 34.6592 14.1146 34.5768C14.7975 34.0865 15.4327 33.5411 16.0387 32.9643C16.1911 32.8198 16.3383 32.6715 16.4855 32.522C16.6924 32.3104 16.8939 32.095 17.0941 31.8783C17.4456 31.4952 17.7824 31.1005 18.1099 30.6981C18.4427 30.2879 18.7637 29.8699 19.0726 29.4443C18.0675 29.5036 17.0637 29.5861 16.0612 29.6945L16.0572 29.6919Z" fill="#FF1100"/>
<path d="M13.6769 32.1583C13.6544 32.1545 13.6331 32.1504 13.6106 32.1478C13.6331 32.1519 13.6557 32.1558 13.6769 32.1583Z" fill="#F1ECE2"/>
<path d="M13.6106 32.1465C13.5828 32.1427 13.5536 32.1376 13.5258 32.1325L13.6106 32.1453V32.1465Z" fill="#FF1100"/>
<path d="M12.7898 32.0088C13.0351 32.0524 13.2804 32.0937 13.5257 32.1338C13.2804 32.0937 13.0338 32.0524 12.7898 32.0088Z" fill="#FF1100"/>
<path d="M15.4286 29.7719C15.5705 29.7422 15.7151 29.7267 15.8596 29.7125C15.2072 30.52 14.511 31.2901 13.7552 32.0113C13.7074 32.0578 13.6584 32.1026 13.6107 32.1478L13.5258 32.1351C13.2805 32.095 13.0352 32.0536 12.7899 32.01C12.335 31.9286 11.8802 31.8395 11.4294 31.739C11.2755 31.7042 11.1204 31.6694 10.9666 31.6332C10.9666 31.3998 10.9692 31.165 10.9758 30.9302C10.9798 30.7909 10.9864 30.6529 10.9944 30.5149C11.5182 30.3936 12.046 30.2866 12.575 30.1885C13.4794 30.0221 14.389 29.8867 15.3013 29.777C15.3159 29.7758 15.3305 29.7732 15.3451 29.7719C15.3623 29.7693 15.3796 29.768 15.3968 29.7693C15.4074 29.7693 15.418 29.7719 15.4286 29.7745V29.7719Z" fill="#FDBF41"/>
<path d="M31.5598 18.498C32.0875 18.5613 32.6166 18.6232 33.1444 18.6864C33.1418 18.6915 33.1379 18.6967 33.1326 18.7018C32.8049 18.6631 32.4761 18.6257 32.1485 18.5844C32.0531 18.5729 31.9576 18.5651 31.8621 18.5548C31.7667 18.5445 31.6712 18.5341 31.577 18.5161C31.5717 18.5096 31.5664 18.5045 31.5598 18.4993V18.498Z" fill="#007FFF"/>
<path d="M28.9741 20.0937C28.994 20.0215 29.0126 19.9466 29.0325 19.8744C29.0139 19.9479 28.994 20.0215 28.9741 20.0937Z" fill="#F1ECE2"/>
<path d="M44.1438 30.4118C44.1438 29.7049 44.1438 28.9993 44.1438 28.2924C44.0974 28.0951 44.0339 27.9029 43.9211 27.73C43.7395 27.4514 43.5233 27.2024 43.2528 26.9986C42.9702 26.7858 42.6814 26.5859 42.3697 26.4156C41.9412 26.1821 41.4957 25.9848 41.0489 25.79C40.9694 25.7552 40.887 25.7384 40.8075 25.7074C39.7971 25.323 38.7576 25.0341 37.7047 24.7852C37.0309 24.6252 36.3522 24.4885 35.6705 24.3646C34.9055 24.2253 34.1361 24.1054 33.3658 24.0022C32.834 23.9312 32.3024 23.8667 31.7693 23.8087C31.532 23.7829 31.2946 23.7584 31.0572 23.7352C30.3863 23.672 29.714 23.6126 29.0417 23.5662C28.6452 23.5378 28.2474 23.5133 27.8509 23.4914C27.5141 23.4733 27.176 23.4566 26.8378 23.4411C26.3061 23.4178 25.7756 23.3998 25.2439 23.3882C25.2055 23.3882 25.167 23.3856 25.1286 23.3856C24.2892 23.3675 23.4485 23.3624 22.6091 23.3701C22.5958 23.3701 22.5826 23.3701 22.568 23.3701C21.7034 23.3779 20.8388 23.3972 19.9756 23.432C19.9239 23.4333 19.8721 23.4372 19.8204 23.4385C18.7981 23.4811 17.7784 23.543 16.7586 23.6268C15.2615 23.7493 13.7698 23.9158 12.286 24.1428C12.2502 24.1479 12.2157 24.1544 12.1799 24.1595C12.1229 24.3556 12.0712 24.5542 11.9996 24.7465C11.9491 24.9425 11.8987 25.1386 11.847 25.3333C11.7105 25.8532 11.5872 26.3756 11.4797 26.9019C11.5553 26.889 11.6309 26.8774 11.7065 26.8645C11.8059 26.8477 11.9054 26.8322 12.0035 26.8155C12.1507 26.7922 12.2979 26.769 12.4451 26.7458C12.9768 26.6658 13.5112 26.5936 14.0443 26.5278C14.5786 26.462 15.113 26.404 15.6487 26.3524C16.0054 26.3176 16.3635 26.2853 16.7215 26.2557C17.2625 26.2118 17.8049 26.1744 18.3472 26.1409C18.8577 26.1099 19.3683 26.0854 19.8788 26.0648C20.0101 26.0596 20.1413 26.0531 20.2726 26.048C20.4675 26.0402 20.6638 26.0351 20.8587 26.0286C20.9847 26.0248 21.1107 26.0222 21.238 26.0196C21.6981 26.008 22.1582 26.0015 22.6184 25.9977C22.7921 25.9977 22.9645 25.9951 23.1382 25.9951C23.4352 25.9951 23.7322 25.9951 24.0279 25.9977C24.1354 25.9977 24.2428 25.999 24.3502 26.0015C24.4655 26.0028 24.5809 26.0041 24.6962 26.0054C25.0105 26.0106 25.3235 26.0183 25.6377 26.0273C25.952 26.0364 26.2649 26.048 26.5792 26.0596C26.631 26.0609 26.6827 26.0648 26.7344 26.066C27.0712 26.0802 27.408 26.097 27.7435 26.1138C28.0021 26.1279 28.2606 26.1434 28.5192 26.1589C28.9064 26.1834 29.295 26.2105 29.6821 26.2415C30.0389 26.2699 30.3955 26.3021 30.7536 26.3369C30.7655 26.3369 30.7788 26.3395 30.7907 26.3408C31.0466 26.3653 31.3025 26.3898 31.5585 26.4156C31.9682 26.4556 32.378 26.5033 32.7879 26.5562C33.1961 26.6091 33.6046 26.6658 34.0128 26.7252C34.1826 26.7497 34.3523 26.7755 34.5208 26.8013C35.0288 26.8813 35.5351 26.969 36.0391 27.0657C36.3361 27.1225 36.6318 27.1818 36.9275 27.2437C37.2232 27.3056 37.5176 27.3727 37.812 27.4424C38.2588 27.5494 38.703 27.6642 39.1419 27.7894C39.7281 27.957 40.309 28.1454 40.8778 28.3659C41.0211 28.4201 41.1617 28.4782 41.3034 28.5362C41.5183 28.6265 41.7292 28.7258 41.9386 28.8264C41.9902 28.8509 42.0419 28.8755 42.0939 28.9012C42.1335 28.9206 42.1747 28.94 42.2146 28.9593C42.2676 28.9851 42.3206 29.0109 42.3723 29.0393C42.4387 29.0741 42.5035 29.1115 42.5646 29.1528C42.8004 29.3114 43.0432 29.4611 43.262 29.6417C43.3123 29.6842 43.3614 29.7268 43.4092 29.772C43.4664 29.8184 43.5207 29.8687 43.5724 29.919C43.6584 30.0029 43.7382 30.0931 43.8082 30.1873C43.8429 30.2337 43.8746 30.2815 43.905 30.3305C43.9315 30.3731 43.9554 30.4156 43.978 30.4595C44.0005 30.5033 44.0218 30.5485 44.0405 30.5962C44.0604 30.6427 44.0774 30.6904 44.0934 30.7381C44.1039 30.7716 44.116 30.8065 44.1265 30.84C44.1265 30.84 44.1265 30.8426 44.1278 30.8439V30.84C44.1559 30.6968 44.1386 30.5524 44.1399 30.4079L44.1438 30.4118Z" fill="#F1ECE2"/>
<path d="M44.153 28.0125C44.1547 27.4771 44.1547 26.9431 44.153 26.4078C44.153 26.1614 44.1504 25.9138 44.1491 25.6674C44.1056 25.5281 44.0748 25.3849 44.0101 25.252C43.8442 24.918 43.5963 24.6496 43.3098 24.4097C42.9968 24.1466 42.6507 23.9286 42.2873 23.7364C41.761 23.4552 41.2148 23.2153 40.6512 23.0127C39.9986 22.778 39.3369 22.5703 38.6661 22.3923C38.1529 22.2568 37.637 22.1317 37.1199 22.0169C36.5298 21.8866 35.9372 21.7718 35.3418 21.67C34.7236 21.5655 34.1031 21.4649 33.4813 21.381C33.187 21.341 32.8913 21.3036 32.5955 21.2675C31.9351 21.1849 31.2734 21.1127 30.6104 21.056C30.4871 21.0443 30.3651 21.0276 30.2418 21.0185C29.7405 20.9811 29.2393 20.945 28.7394 20.9102C28.6678 20.905 28.5962 20.8999 28.5246 20.8947C28.1904 20.8715 27.8562 20.8483 27.5221 20.8315C27.0871 20.8109 26.6522 20.7954 26.2173 20.7799C26.2133 20.7799 26.2093 20.7799 26.2053 20.7799C25.7505 20.7644 25.297 20.7477 24.8422 20.7399C24.4417 20.7335 24.0413 20.7296 23.6395 20.7283C23.4631 20.7283 23.2867 20.727 23.1091 20.727C22.4063 20.727 21.7048 20.7373 21.0033 20.7567C20.9927 20.7567 20.9834 20.7567 20.9728 20.7567C20.1493 20.7799 19.3245 20.8122 18.5024 20.8637C17.8699 20.9024 17.2374 20.9373 16.6062 20.9889C16.3503 21.0095 16.0957 21.0405 15.8411 21.065C14.9513 21.1514 14.0642 21.252 13.1797 21.3732C13.1691 21.3746 13.1598 21.3759 13.1492 21.3771C12.7952 22.2685 12.4769 23.1714 12.1971 24.0885C12.1905 24.1117 12.1839 24.1337 12.1772 24.1569C12.2117 24.1517 12.2475 24.1453 12.2833 24.1401C13.7672 23.9131 15.2589 23.7454 16.756 23.6242C17.7757 23.5416 18.7955 23.4784 19.8178 23.4358C19.8695 23.4333 19.9213 23.4307 19.973 23.4294C20.8362 23.3946 21.7008 23.3752 22.5654 23.3675C22.5786 23.3675 22.5932 23.3675 22.6065 23.3675C23.4472 23.361 24.2866 23.3662 25.1259 23.3829C25.1644 23.3829 25.2029 23.3855 25.2413 23.3855C25.7731 23.3971 26.3035 23.4152 26.8352 23.4384C27.1733 23.4539 27.5102 23.4707 27.8483 23.4887C28.2448 23.5106 28.6426 23.5352 29.0391 23.5635C29.7114 23.6113 30.3837 23.6693 31.0546 23.7325C31.292 23.7557 31.5294 23.7802 31.7667 23.806C32.2998 23.8641 32.8314 23.9286 33.3633 23.9995C34.1336 24.1027 34.9029 24.2227 35.668 24.362C36.3496 24.4858 37.0283 24.6226 37.7021 24.7825C38.755 25.0314 39.7945 25.3204 40.8049 25.7048C40.8844 25.7357 40.9668 25.7525 41.0463 25.7874C41.4931 25.9834 41.9386 26.1795 42.3671 26.413C42.6785 26.5832 42.9676 26.7832 43.2503 26.996C43.5208 27.1998 43.737 27.4487 43.9185 27.7274C44.031 27.9002 44.0935 28.0924 44.1412 28.2898C44.1599 28.1969 44.1491 28.1027 44.1491 28.0099L44.153 28.0125Z" fill="#FDBF41"/>
<path d="M28.563 7.79051C28.929 8.34647 29.1942 8.94758 29.3944 9.57704C29.4567 9.77183 29.5124 9.96789 29.5628 10.1653C29.6463 10.4942 29.7113 10.8283 29.763 11.1637C29.7776 11.2617 29.7922 11.3597 29.8055 11.459C29.8307 11.6564 29.8532 11.8538 29.8718 12.0511C29.8797 12.1504 29.8877 12.2485 29.8956 12.3478C29.9328 12.887 29.9487 13.4261 29.9341 13.9666C29.9182 14.5316 29.8837 15.0966 29.8254 15.6603C29.767 16.2201 29.6874 16.7773 29.592 17.3307C29.535 17.6635 29.4713 17.995 29.4024 18.3239C28.8534 18.2813 28.3044 18.2452 27.7541 18.2194C27.4902 18.2078 27.225 18.1937 26.9598 18.1807C27.1388 17.4326 27.29 16.6793 27.408 15.9182C27.5379 15.0759 27.6308 14.231 27.6652 13.381C27.6931 12.6587 27.6891 11.935 27.6294 11.2127C27.5791 10.6103 27.4955 10.0143 27.3629 9.42355C27.2131 8.75925 27.0022 8.11429 26.6999 7.49899C26.5805 7.2552 26.44 7.02172 26.2994 6.78954C26.4148 6.75343 26.5355 6.74955 26.6535 6.73797C26.7158 6.73151 26.7781 6.72635 26.8391 6.72247C26.8922 6.71989 26.9452 6.71732 26.9982 6.71601C27.0844 6.71474 27.1706 6.71474 27.2568 6.71601C27.3165 6.71732 27.3775 6.71989 27.4372 6.72247C27.4836 6.72505 27.53 6.72763 27.5764 6.73151C27.5844 6.73151 27.5923 6.73278 27.5989 6.73408C27.6135 6.73666 27.6268 6.74054 27.6401 6.7457C27.6533 6.75085 27.6652 6.75731 27.6772 6.76504C27.6944 6.77535 27.7117 6.78954 27.7276 6.80373C27.7687 6.83985 27.8084 6.87727 27.8469 6.91465C27.9251 6.98949 28.0007 7.06818 28.0723 7.14813C28.254 7.34808 28.4171 7.56091 28.5669 7.78793L28.563 7.79051Z" fill="#F1ECE2"/>
<path d="M27.3589 9.42349C27.4915 10.013 27.575 10.6102 27.6254 11.2126C27.6864 11.935 27.6904 12.6586 27.6612 13.381C27.6281 14.231 27.5352 15.0759 27.4039 15.9183C27.2859 16.6793 27.1348 17.4339 26.9558 18.1807C26.7555 18.1717 26.554 18.1614 26.3538 18.1537C25.8949 18.1369 25.4375 18.1266 24.9787 18.1176C24.8076 18.1137 24.6365 18.1111 24.4668 18.1085C24.6339 17.4958 24.7811 16.8779 24.907 16.2562C25.0025 15.7905 25.0847 15.3223 25.1577 14.8528C25.2054 14.538 25.2478 14.2233 25.285 13.9073C25.3234 13.577 25.3539 13.2455 25.3751 12.9127C25.3977 12.558 25.4123 12.202 25.4202 11.8472C25.4295 11.3713 25.4136 10.8966 25.3778 10.4219C25.3539 10.1084 25.3234 9.79627 25.2823 9.48414C25.2266 9.05717 25.147 8.63536 25.0423 8.21742C24.9588 7.88333 24.8633 7.55055 24.736 7.22807C24.8235 7.17388 24.9243 7.14681 25.0211 7.11197C25.2173 7.04104 25.4149 6.97912 25.6165 6.92494C25.818 6.87206 26.0209 6.82691 26.2278 6.79337C26.2423 6.79079 26.2556 6.78691 26.2702 6.78691C26.2795 6.78691 26.2875 6.78691 26.2954 6.78949C26.436 7.0217 26.5765 7.25387 26.6959 7.49894C26.9982 8.11424 27.209 8.75919 27.3589 9.42349Z" fill="#FDBF41"/>
<path d="M33.1227 8.3291C33.1227 8.3291 33.1179 8.32543 33.1179 8.32298C33.1179 8.32175 33.1179 8.32054 33.1179 8.3181L33.1239 8.32175L33.1215 8.32787L33.1227 8.3291Z" fill="#3180F4"/>
<path d="M44.1413 33.3862C44.1426 33.3528 44.1452 33.319 44.1452 33.2856C44.1452 32.7336 44.1465 32.1803 44.1465 31.6281C44.1465 31.3895 44.1426 31.1508 44.1413 30.9122C44.1413 30.898 44.1478 30.8825 44.1465 30.8683C44.1426 30.8593 44.1374 30.8528 44.1334 30.8451C44.1334 30.8451 44.1334 30.8464 44.1334 30.8477C44.1334 30.8464 44.1334 30.8451 44.1321 30.8438C44.1213 30.809 44.1096 30.7754 44.0988 30.7406C44.0831 30.6916 44.0644 30.6439 44.0458 30.5987C44.0271 30.5523 44.0059 30.5071 43.9836 30.462C43.9611 30.4181 43.9359 30.3743 43.9107 30.333C43.8799 30.284 43.8482 30.2363 43.8139 30.1898C43.7435 30.0944 43.6654 30.0054 43.5777 29.9215C43.526 29.8712 43.4717 29.8222 43.4145 29.7745C43.3667 29.728 43.3177 29.6855 43.2673 29.6442C43.0485 29.4636 42.8061 29.314 42.5699 29.1553C42.5075 29.114 42.4427 29.0766 42.3776 29.0418C42.3259 29.0147 42.2729 28.9876 42.2199 28.9618C42.18 28.9425 42.1388 28.9231 42.0993 28.9038C42.0476 28.878 41.9959 28.8535 41.9439 28.829C41.7345 28.7283 41.5236 28.629 41.309 28.5387C41.167 28.4807 41.0264 28.4226 40.8831 28.3685C40.313 28.1492 39.7334 27.9596 39.1476 27.7919C38.7073 27.6655 38.2631 27.5507 37.8173 27.4449C37.5229 27.3752 37.2285 27.3082 36.9328 27.2463C36.6372 27.1843 36.3415 27.125 36.0445 27.0682C35.5394 26.9715 35.0328 26.8825 34.5261 26.8038C34.3564 26.778 34.1882 26.7522 34.0185 26.7277C33.6099 26.6684 33.2027 26.6116 32.7932 26.5587C32.3847 26.5058 31.9749 26.4581 31.5638 26.4181C31.3079 26.3936 31.052 26.3678 30.7961 26.3433C30.7842 26.3433 30.7709 26.3407 30.759 26.3394C30.4022 26.3046 30.0456 26.2724 29.6875 26.244C29.3003 26.213 28.9118 26.1872 28.5246 26.1614C28.266 26.1446 28.0074 26.1292 27.7488 26.1163C27.412 26.0982 27.0752 26.0815 26.7397 26.0685C26.688 26.066 26.6363 26.0634 26.5846 26.0621C26.2703 26.0492 25.9574 26.0389 25.6431 26.0298C25.3289 26.0208 25.0159 26.0131 24.7016 26.0079C24.5863 26.0067 24.4709 26.0053 24.3555 26.004C24.2482 26.0028 24.1407 26.0015 24.0333 26.0002C23.7363 25.9976 23.4393 25.9963 23.1436 25.9976C22.9699 25.9976 22.7961 25.9989 22.6238 26.0002C22.1636 26.004 21.7035 26.0105 21.2434 26.0221C21.1174 26.0247 20.9914 26.0286 20.8641 26.0312C20.6692 26.0363 20.4729 26.0428 20.278 26.0505C20.1467 26.0557 20.0154 26.0621 19.8842 26.0673C19.3736 26.0879 18.8631 26.1137 18.3526 26.1434C17.8103 26.1769 17.2679 26.213 16.7269 26.2582C16.3689 26.2878 16.0108 26.3201 15.6541 26.3549C15.1184 26.4065 14.584 26.4645 14.0496 26.5303C13.5153 26.5961 12.9822 26.6684 12.4504 26.7483C12.3032 26.7703 12.1561 26.7935 12.0089 26.818C11.9094 26.8335 11.8113 26.8502 11.7119 26.867C11.6363 26.8799 11.5607 26.8915 11.4851 26.9044C11.5925 26.3781 11.7158 25.8557 11.8524 25.3359C11.9041 25.1398 11.9545 24.945 12.0049 24.749C12.0765 24.5568 12.1282 24.3581 12.1852 24.1621C12.1919 24.1388 12.1985 24.1169 12.2051 24.0937C12.4849 23.1766 12.8032 22.2723 13.1572 21.3823C13.3813 20.8173 13.62 20.2575 13.8733 19.7028C14.043 19.3313 14.2194 18.9611 14.401 18.5961C15.0017 17.3874 15.6687 16.2123 16.4086 15.0759C17.0995 14.0104 17.8514 12.9888 18.6748 12.0162C18.6921 11.9969 18.7053 11.9737 18.7212 11.953C18.9692 11.677 19.2132 11.3984 19.4665 11.1262C20.2913 10.2375 21.1797 9.41449 22.1636 8.69343C22.4063 8.5154 22.6569 8.34772 22.9049 8.17616C22.9274 8.1607 22.9553 8.15812 22.9818 8.15681C22.9937 8.122 23.0269 8.10651 23.0547 8.08974C23.5626 7.77372 24.0903 7.49251 24.646 7.26549C24.6659 7.25776 24.6844 7.24742 24.7056 7.24099C24.7109 7.23969 24.7176 7.23841 24.7242 7.23711C24.7308 7.23711 24.7375 7.23453 24.7441 7.23453C24.8316 7.18035 24.9324 7.15327 25.0292 7.11843C25.2254 7.0475 25.423 6.98559 25.6246 6.9314C25.8261 6.87852 26.029 6.83337 26.2359 6.79983C26.2504 6.79725 26.2637 6.79337 26.2783 6.79337C26.2876 6.79337 26.2955 6.79337 26.3035 6.79595C26.4189 6.75984 26.5395 6.75599 26.6575 6.74437C26.7199 6.73791 26.7822 6.73276 26.8432 6.72888C26.8962 6.7263 26.9493 6.72372 27.0023 6.72245C27.0885 6.72115 27.1747 6.72115 27.2609 6.72245C27.3206 6.72372 27.3816 6.7263 27.4412 6.72888C27.4876 6.73145 27.534 6.73406 27.5805 6.73791C27.5884 6.73791 27.5964 6.73922 27.603 6.74049C27.6176 6.74307 27.6308 6.74695 27.6441 6.7521C27.6574 6.75726 27.6693 6.76372 27.6812 6.77145C27.6985 6.78179 27.7157 6.79595 27.7316 6.81014C27.7727 6.84629 27.8125 6.88367 27.851 6.92109C27.9292 6.9959 28.0048 7.07458 28.0764 7.15457C28.2581 7.35449 28.4212 7.56732 28.571 7.79437C28.937 8.3503 29.2022 8.95141 29.4024 9.5809C29.4647 9.77566 29.5204 9.97172 29.5708 10.1691C29.6544 10.498 29.7193 10.8321 29.7711 11.1675C29.7856 11.2655 29.8002 11.3635 29.8135 11.4629C29.8387 11.6602 29.8612 11.8576 29.8798 12.055C29.8878 12.1543 29.8957 12.2523 29.9037 12.3516C29.9408 12.8908 29.9567 13.43 29.9421 13.9705C29.9262 14.5354 29.8917 15.1004 29.8334 15.6641C29.775 16.2239 29.6955 16.7812 29.6 17.3345C29.543 17.6674 29.4793 17.9988 29.4104 18.3278C29.4992 18.3342 29.5881 18.3407 29.6769 18.3484C30.3147 18.4 30.9512 18.4619 31.5877 18.5187C31.5824 18.5122 31.5771 18.5071 31.5705 18.5019C32.0982 18.5651 32.6273 18.6271 33.1549 18.6903C33.1523 18.6954 33.1484 18.7006 33.1432 18.7057C33.1749 18.7096 33.207 18.7148 33.2387 18.7186C33.3447 18.2104 33.4402 17.7022 33.521 17.1901C33.5926 16.7309 33.6564 16.2704 33.7054 15.8086C33.7519 15.3765 33.7928 14.9443 33.814 14.5096C33.8248 14.3007 33.8366 14.0904 33.85 13.8814C33.8513 13.8544 33.8366 13.8183 33.8804 13.8066C33.8804 13.4171 33.8778 13.0262 33.8765 12.6367C33.8552 12.6277 33.8539 12.6096 33.8513 12.5903C33.8461 12.5116 33.8366 12.4342 33.834 12.3555C33.818 11.7892 33.765 11.2268 33.6868 10.667C33.6008 10.0466 33.4732 9.43514 33.2969 8.83273C33.2531 8.68181 33.2161 8.5296 33.1471 8.38641L33.1327 8.33484C33.1327 8.33484 33.1271 8.33095 33.1271 8.32838C33.1271 8.3271 33.1271 8.3258 33.1271 8.32322C33.1232 8.30515 33.1206 8.28711 33.1141 8.26904C32.8579 7.55055 32.5239 6.86948 32.0638 6.25033C31.6209 5.6531 31.0865 5.15391 30.4275 4.7824C30.1808 4.6431 29.913 4.54507 29.6597 4.41996C29.6371 4.40835 29.608 4.41092 29.5814 4.40577C29.5589 4.37739 29.5231 4.36962 29.4926 4.35546C28.8946 4.09748 28.2978 3.83947 27.6985 3.5841C27.6216 3.55053 27.5513 3.50153 27.4651 3.49122C27.4505 3.48603 27.4359 3.48218 27.4213 3.47703C27.3192 3.44476 27.2145 3.42154 27.1164 3.37642C27.1071 3.37381 27.0991 3.37123 27.0898 3.36738C27.0858 3.36608 27.0805 3.36481 27.0766 3.3635C27.0766 3.3635 27.0752 3.3635 27.0739 3.3635C27.0633 3.36996 27.0567 3.3648 27.0501 3.35577C26.8578 3.30804 26.6655 3.27193 26.4706 3.24612C26.33 3.22678 26.1894 3.21259 26.0476 3.20486C25.9998 3.20228 25.9534 3.20097 25.9057 3.1997C25.7638 3.19582 25.6232 3.19709 25.4827 3.20355C25.2957 3.21128 25.1101 3.22805 24.9244 3.25258C24.6009 3.29643 24.28 3.36223 23.9617 3.44734C23.9166 3.46026 23.8702 3.47187 23.8251 3.48603C23.2271 3.6589 22.6569 3.89238 22.1066 4.16841C21.9236 4.26001 21.742 4.35674 21.5616 4.45865C21.3972 4.55022 21.2354 4.64441 21.0749 4.74371C21.0219 4.77597 20.9689 4.80951 20.9158 4.84305C20.8628 4.87658 20.8097 4.91012 20.758 4.94493C20.6533 5.0133 20.5498 5.08295 20.4478 5.15518C20.3973 5.19133 20.3456 5.22744 20.2952 5.26356C20.2952 5.26741 20.2952 5.26998 20.2952 5.27386C20.2952 5.27644 20.2926 5.27902 20.2913 5.2816C20.2873 5.28548 20.282 5.28678 20.274 5.28678H20.2727C20.2727 5.28678 20.2727 5.29194 20.2727 5.29321C20.2727 5.29836 20.27 5.30094 20.2674 5.30225C20.2647 5.30355 20.2621 5.30355 20.2568 5.30225C20.2555 5.30225 20.2528 5.30225 20.2515 5.29967C20.0261 5.45316 19.8073 5.61311 19.5938 5.77952C19.4983 5.85305 19.4041 5.92913 19.3113 6.00524C19.2967 6.01685 19.2822 6.02977 19.2676 6.04135C19.1721 6.12004 19.0766 6.20003 18.9825 6.28129C18.9825 6.28387 18.9825 6.28517 18.9825 6.28775C18.9825 6.29418 18.9798 6.29806 18.9758 6.30194C18.9758 6.30194 18.9732 6.30321 18.9719 6.30452C18.9692 6.30579 18.9652 6.3071 18.9613 6.3071C18.9586 6.31225 18.9546 6.3174 18.9507 6.32129C18.9454 6.32644 18.9414 6.3316 18.9347 6.33548C18.9268 6.34063 18.9175 6.34579 18.9069 6.34706C18.9069 6.35867 18.9042 6.36513 18.8989 6.36771C18.891 6.37286 18.8764 6.36901 18.8658 6.37029C18.83 6.4064 18.7928 6.44251 18.757 6.47736C18.7544 6.47993 18.7531 6.48251 18.7504 6.48381C18.7504 6.48509 18.7504 6.48766 18.7504 6.48897C18.7504 6.49412 18.7478 6.4967 18.7451 6.50058H18.7438C18.7438 6.50058 18.7358 6.50443 18.7279 6.50443C18.696 6.53024 18.6616 6.55346 18.6311 6.58054C18.6284 6.58312 18.6258 6.58442 18.6231 6.587C18.5064 6.69407 18.3884 6.80114 18.2731 6.91078C18.2651 6.91851 18.2571 6.92494 18.2505 6.9314C18.2147 6.96624 18.1776 6.99847 18.1404 7.03201C18.0476 7.11585 17.9521 7.19711 17.8633 7.28484C17.8155 7.33256 17.7665 7.38029 17.7188 7.42675C17.443 7.69892 17.1698 7.97367 16.9059 8.25742C16.5691 8.6199 16.2416 8.98883 15.9233 9.36546C15.8782 9.41965 15.8318 9.47253 15.7867 9.52671C15.7801 9.53445 15.7721 9.54348 15.7668 9.55252C15.7576 9.5654 15.7483 9.57832 15.739 9.59248C15.7271 9.61055 15.7151 9.62863 15.7032 9.6454C15.6939 9.65828 15.6846 9.6699 15.674 9.68278C15.67 9.68666 15.6674 9.69051 15.6647 9.69312C15.6501 9.70859 15.6356 9.72278 15.6183 9.73439C15.6183 9.73824 15.617 9.73954 15.6157 9.74212C15.6157 9.7447 15.6157 9.74728 15.613 9.74985C15.613 9.75116 15.6104 9.75243 15.6091 9.75374C15.6064 9.75504 15.6024 9.75631 15.5998 9.75762C15.5918 9.79373 15.5613 9.81177 15.5361 9.835C15.5348 9.835 15.5335 9.83758 15.5321 9.83888C15.5242 9.84531 15.5189 9.85307 15.5136 9.8608C15.5109 9.86465 15.5083 9.86854 15.5069 9.87369C15.5056 9.87885 15.5029 9.88273 15.5016 9.88788C15.5016 9.89046 15.5016 9.89176 15.5016 9.89434C15.5016 9.9008 15.499 9.90465 15.4937 9.90853C15.4937 9.90853 15.491 9.90853 15.491 9.9098C15.4897 9.9098 15.4871 9.9098 15.4857 9.9098C15.4844 9.9098 15.4831 9.9098 15.4804 9.9098C15.4221 9.98076 15.3624 10.0517 15.304 10.1226C15.3014 10.1265 15.2974 10.1304 15.2948 10.1342C15.2961 10.1433 15.2961 10.151 15.2948 10.1588C15.2948 10.1652 15.2908 10.1691 15.2881 10.1742C15.2881 10.1755 15.2855 10.1781 15.2855 10.1794C15.2815 10.1833 15.2762 10.1884 15.2709 10.191C15.2643 10.1949 15.2563 10.1975 15.2484 10.2C15.2391 10.2104 15.2298 10.2194 15.2205 10.2297C15.2165 10.2336 15.2139 10.2375 15.2113 10.24C15.2033 10.2478 15.1967 10.2568 15.19 10.2645C15.0402 10.4606 14.8903 10.658 14.7405 10.854C14.7405 10.8605 14.7379 10.8643 14.7339 10.8682C14.7339 10.8682 14.7326 10.8695 14.7312 10.8708C14.7286 10.8734 14.7246 10.8747 14.7206 10.8747C14.6172 11.0166 14.5111 11.1572 14.409 11.3004C14.3891 11.3287 14.3692 11.3571 14.3493 11.3855C14.1968 11.6035 14.0536 11.8279 13.8998 12.0446C13.8229 12.153 13.7499 12.2639 13.677 12.3736C13.6027 12.4832 13.5285 12.5928 13.4476 12.6999C13.319 12.8714 13.2089 13.0585 13.0962 13.2404C13.0472 13.3191 12.9981 13.3977 12.9504 13.4764C12.4054 14.3561 11.8763 15.2449 11.4254 16.1749C11.3989 16.2291 11.3684 16.2794 11.3379 16.331C11.3074 16.3813 11.2756 16.4329 11.2491 16.4845C11.0953 16.785 10.9454 17.0869 10.7995 17.3913C10.7452 17.5048 10.6922 17.6183 10.6378 17.7331C10.5675 17.8815 10.4985 18.0311 10.4309 18.1807C10.3447 18.3704 10.2585 18.5613 10.1737 18.7534C10.1379 18.8334 10.1034 18.9147 10.0689 18.996C10.0251 19.0966 9.98139 19.1972 9.93893 19.2991C9.78779 19.6564 9.6419 20.0176 9.50004 20.3787C9.45893 20.4845 9.41781 20.5903 9.37804 20.6973C9.28125 20.9553 9.18708 21.2133 9.09295 21.4726C9.07041 21.5345 9.04784 21.5964 9.0253 21.6583C9.00807 21.7061 8.99083 21.7551 8.97493 21.8041C8.93117 21.9266 8.89005 22.0505 8.85028 22.1743C8.80121 22.3252 8.75346 22.4761 8.70574 22.6271C8.67126 22.7354 8.63679 22.8425 8.601 22.9508C8.52011 23.192 8.42594 23.4307 8.39412 23.6848C8.39281 23.6977 8.37688 23.7093 8.36893 23.7209C8.32916 23.8267 8.30528 23.935 8.27875 24.0434C8.2655 24.095 8.24957 24.1466 8.23368 24.1982C8.21775 24.2498 8.20185 24.3014 8.18726 24.353C8.12626 24.5748 8.0666 24.798 8.0109 25.0211C7.95918 25.2224 7.91012 25.4262 7.8624 25.6287C7.80934 25.857 7.75894 26.0853 7.70987 26.3136C7.66745 26.5136 7.62637 26.7148 7.5879 26.916C7.55742 27.076 7.5269 27.2346 7.49906 27.3946C7.47385 27.5352 7.45131 27.6758 7.42743 27.8164C7.39825 27.9957 7.37042 28.1737 7.34523 28.353C7.3227 28.5142 7.30147 28.6742 7.28024 28.8354C7.22457 29.2778 7.17946 29.7203 7.14368 30.1653C7.13439 30.293 7.1251 30.4194 7.11849 30.5471C7.11051 30.6748 7.10391 30.8012 7.09857 30.929C7.08798 31.1831 7.08003 31.4385 7.07208 31.6926C7.07074 31.7506 7.07074 31.8087 7.06943 31.8669C7.06943 31.8847 7.06943 31.9015 7.06943 31.9197C7.06809 32.2458 7.08134 32.571 7.09197 32.8949C7.09197 32.9089 7.09462 32.9245 7.09462 32.9385C7.09727 32.9967 7.09991 33.0546 7.1039 33.1129C7.11581 33.3477 7.13573 33.5822 7.16092 33.817C7.17816 33.9758 7.1967 34.1358 7.21793 34.2943C7.22058 34.3175 7.22457 34.3395 7.22722 34.3627C7.27232 34.6853 7.32404 35.0064 7.389 35.3249C7.50966 35.9208 7.67013 36.5066 7.89023 37.0755C7.89422 37.0844 7.89818 37.0946 7.90217 37.1051C8.0666 37.5254 8.25752 37.9346 8.49224 38.324C8.87811 38.9652 9.34886 39.5328 9.94957 39.9853C10.0212 40.0397 10.0941 40.0912 10.1684 40.1428C10.24 40.1905 10.3169 40.2344 10.3911 40.2783C10.4044 40.2872 10.4203 40.2936 10.4349 40.3003C10.4455 40.3054 10.4561 40.3092 10.4667 40.3143C10.4853 40.3235 10.5025 40.3349 10.5145 40.3518C10.5184 40.3569 10.5224 40.3645 10.5264 40.3725V40.3699C10.5463 40.3671 10.5635 40.3712 10.5728 40.3919H10.5741C10.5927 40.3919 10.6099 40.397 10.6192 40.4135C10.6245 40.4135 10.6285 40.4135 10.6325 40.4148H10.6338C10.6457 40.4177 10.6563 40.4228 10.6643 40.4342C10.6643 40.4342 10.6643 40.4342 10.6643 40.4355C10.6643 40.4355 10.6669 40.4355 10.6683 40.4355C10.6709 40.4355 10.6736 40.4355 10.6762 40.4355C10.6789 40.4355 10.6802 40.4368 10.6842 40.4368C10.6855 40.4368 10.6882 40.4368 10.6895 40.438C10.6922 40.438 10.6948 40.4409 10.6974 40.4422C10.6974 40.4422 10.7001 40.4422 10.7014 40.4435C10.7041 40.446 10.7067 40.4485 10.7094 40.4511C10.7094 40.4511 10.7094 40.4511 10.7107 40.4511C10.7359 40.4769 10.7704 40.4832 10.8022 40.4975C11.4639 40.7826 12.1269 41.0677 12.7886 41.3528C13.1161 41.4935 13.441 41.6417 13.7871 41.7346C14.1332 41.8275 14.4846 41.8905 14.8439 41.9049C14.9036 41.9049 14.9633 41.9049 15.0229 41.9049C15.202 41.9049 15.381 41.9049 15.56 41.9049C15.7337 41.8998 15.9061 41.8778 16.0771 41.852C16.7733 41.7499 17.4416 41.5501 18.0874 41.2806C19.2702 40.7864 20.3377 40.1119 21.3388 39.3314C21.5589 39.1599 21.7738 38.9833 21.9873 38.8039C22.7312 38.8169 23.4737 38.8207 24.2176 38.8128C24.9258 38.8051 25.6352 38.7937 26.3433 38.7663C26.3777 38.7472 26.4149 38.7472 26.452 38.7612C26.4626 38.7612 26.4732 38.7612 26.4838 38.7612C26.5262 38.7418 26.57 38.7431 26.6138 38.7561H26.6456C26.6708 38.7405 26.6973 38.738 26.7238 38.7431C26.7238 38.7431 26.7252 38.7431 26.7265 38.7431H26.7278C26.7371 38.7459 26.7451 38.7485 26.753 38.751H26.7848C26.8021 38.7405 26.8193 38.7367 26.8366 38.7355C26.8551 38.7355 26.8737 38.7393 26.8936 38.7447C26.9042 38.7447 26.9148 38.7447 26.9254 38.7447C26.9373 38.738 26.9493 38.7342 26.9612 38.7316C26.9851 38.7265 27.0103 38.7291 27.0355 38.738C27.0461 38.738 27.0553 38.738 27.0659 38.738C27.0659 38.738 27.0686 38.738 27.0699 38.7367C27.1044 38.7202 27.1402 38.7202 27.1747 38.7329C27.1853 38.7329 27.1959 38.7329 27.2052 38.7329C27.241 38.711 27.2768 38.7135 27.3153 38.7265C27.3259 38.7265 27.3365 38.7265 27.3457 38.7265C27.3816 38.7059 27.4187 38.7084 27.4558 38.7202C27.4664 38.7202 27.477 38.7202 27.4863 38.7202C27.4943 38.7148 27.5009 38.7122 27.5075 38.7097C27.5195 38.7059 27.5301 38.7059 27.542 38.7059C27.5526 38.7059 27.5645 38.7084 27.5752 38.7135C27.7369 38.7059 27.8974 38.7008 28.0592 38.6915C29.2977 38.6206 30.5322 38.5251 31.7654 38.3925C33.6377 38.1898 35.4982 37.9177 37.3362 37.5101C38.5879 37.2327 39.8224 36.8999 41.0159 36.4318C41.6564 36.1801 42.2782 35.8925 42.8539 35.5158C43.1999 35.2889 43.5208 35.0334 43.7779 34.707C43.9398 34.4995 44.071 34.2761 44.1213 34.0159C44.1413 33.9952 44.1491 33.9707 44.1504 33.9449C44.1625 33.7578 44.1691 33.572 44.1517 33.3849L44.1413 33.3862ZM27.5195 29.4404C27.1747 29.4198 26.8313 29.4017 26.4865 29.3875C26.8313 29.403 27.1747 29.421 27.5195 29.4404ZM19.8722 35.5301C19.8165 35.5778 19.7609 35.6268 19.7052 35.6745C19.314 36.0086 18.9109 36.3246 18.4905 36.6202C18.0702 36.9142 17.6339 37.1875 17.1778 37.4315C17.1128 37.4662 17.0465 37.5009 16.9802 37.5346C16.8277 37.6119 16.6738 37.6855 16.5187 37.7564C16.3636 37.8261 16.2058 37.8907 16.0466 37.9511C15.7284 38.0724 15.4022 38.1732 15.0654 38.2505C14.9195 38.284 14.7736 38.3123 14.6278 38.3342C14.5761 38.3422 14.5244 38.3498 14.474 38.3575C14.2751 38.3832 14.0761 38.3988 13.8759 38.4039C13.8096 38.4052 13.742 38.4065 13.6757 38.4052C13.6081 38.4052 13.5417 38.4026 13.4742 38.4001C13.445 38.3988 13.4171 38.395 13.3879 38.3925C13.3601 38.3899 13.3309 38.3861 13.3018 38.3832C13.2646 38.3807 13.2368 38.3654 13.209 38.3422C13.1294 38.2725 13.0538 38.2003 12.9795 38.1255C12.8695 38.0145 12.7647 37.8983 12.6666 37.7784C12.6016 37.6985 12.538 37.6158 12.477 37.5308C12.4465 37.4882 12.4173 37.4455 12.3881 37.4029C12.3855 37.3991 12.3841 37.3953 12.3828 37.3914C12.3815 37.3851 12.3788 37.3771 12.3775 37.3708C12.3656 37.3593 12.3497 37.3475 12.3404 37.3348L12.3377 37.332C12.2012 37.122 12.0778 36.9053 11.9664 36.6819C11.9108 36.5696 11.8577 36.4589 11.8087 36.344C11.7582 36.2304 11.7119 36.1143 11.6681 35.9969C11.6628 35.9829 11.6641 35.9685 11.6615 35.9533C11.5846 35.8139 11.5461 35.6615 11.4984 35.5132C11.3923 35.1817 11.3087 34.845 11.2398 34.5046C11.2278 34.4438 11.2159 34.3846 11.204 34.3239C11.1987 34.2994 11.196 34.2761 11.1907 34.2516C11.1854 34.222 11.1788 34.1925 11.1735 34.1629C11.1735 34.1549 11.1735 34.1485 11.1708 34.1409C11.1682 34.1151 11.1669 34.0881 11.1642 34.062C11.1191 33.8727 11.0992 33.6789 11.0767 33.4855C10.9998 32.8691 10.9706 32.25 10.9693 31.6307C10.9693 31.3972 10.9719 31.1624 10.9786 30.9277C10.9825 30.7884 10.9892 30.6503 10.9971 30.5123C11.5209 30.3911 12.0487 30.284 12.5777 30.186C13.4821 30.0196 14.3918 29.8841 15.304 29.7745C15.3186 29.7732 15.3332 29.7706 15.3478 29.7693C15.365 29.7667 15.3823 29.7655 15.3995 29.7667C15.4102 29.7667 15.4208 29.7693 15.4314 29.7719C15.5732 29.7422 15.7178 29.7267 15.8623 29.7125C15.9286 29.7061 15.9949 29.6997 16.0599 29.6932C17.0624 29.5849 18.0662 29.5023 19.0713 29.443C19.3538 29.4262 19.6362 29.4107 19.9173 29.3978C20.6387 29.3643 21.36 29.3423 22.0814 29.3295C22.4766 29.3217 22.8717 29.3178 23.2669 29.3178C23.8304 29.3178 24.394 29.3243 24.9562 29.3372C24.8342 29.5346 24.7109 29.7319 24.585 29.9267C24.4934 30.0699 24.4006 30.2117 24.3065 30.3523C24.1381 30.6039 23.967 30.8528 23.792 31.1005C23.4684 31.5571 23.1329 32.0046 22.7842 32.4434C22.6741 32.5828 22.5628 32.7205 22.4487 32.8574C22.4288 32.8819 22.4089 32.9064 22.389 32.9296C22.2246 33.1281 22.0575 33.3232 21.8865 33.5154C21.6014 33.8364 21.3083 34.1498 21.0073 34.4569C20.9158 34.5498 20.8243 34.6427 20.7315 34.7343C20.4928 34.9688 20.2462 35.1985 19.9942 35.4216C19.9531 35.4579 19.912 35.4951 19.8709 35.5314L19.8722 35.5301ZM21.2142 35.468C21.5059 35.4773 21.799 35.4849 22.0907 35.49C21.7976 35.4849 21.5059 35.4773 21.2142 35.468ZM40.4975 32.4472C40.4893 32.4574 40.4762 32.4679 40.455 32.4832C40.4272 32.5039 40.3994 32.5258 40.3699 32.5452C40.3421 32.5659 40.313 32.5853 40.2839 32.6057C40.2296 32.6432 40.1737 32.6795 40.1168 32.7142C40.1102 32.718 40.1033 32.7218 40.0968 32.7272C40.0504 32.7555 40.0039 32.7839 39.9562 32.8109C39.8862 32.8523 39.8171 32.8908 39.7455 32.9296C39.2601 33.1927 38.7495 33.4043 38.2285 33.5914C37.7365 33.7667 37.238 33.9204 36.7353 34.0569C36.0154 34.2529 35.2859 34.4155 34.55 34.5574C33.8353 34.6968 33.118 34.8142 32.3979 34.916C31.6779 35.0178 30.9552 35.1031 30.2312 35.1766C29.9938 35.2011 29.7565 35.223 29.5191 35.245C29.0431 35.2876 28.567 35.3236 28.091 35.3548C27.8523 35.37 27.6136 35.3844 27.3763 35.3971C26.8419 35.427 26.3075 35.449 25.7731 35.4655C25.6763 35.468 25.5795 35.4722 25.4814 35.4747C25.3925 35.4773 25.3036 35.4798 25.2135 35.4824C25.4323 35.2192 25.6511 34.9574 25.8513 34.6799C25.8805 34.6452 25.9096 34.6102 25.9375 34.5743C26.3658 34.013 26.7769 33.4415 27.172 32.8599C27.1933 32.8278 27.3033 32.6652 27.3365 32.6149C27.5871 32.2395 27.8297 31.8602 28.0671 31.4759C28.4543 30.8464 28.8243 30.2079 29.1757 29.5604C29.8466 29.6171 30.5163 29.6829 31.1859 29.7629C31.235 29.768 31.2841 29.7783 31.3345 29.7861C31.6341 29.8067 31.9312 29.8506 32.2269 29.8931C32.6075 29.9473 32.9881 30.0067 33.3672 30.0686C33.8791 30.1524 34.391 30.2453 34.8987 30.3523C35.1734 30.4104 35.4465 30.4697 35.721 30.5278C35.7236 30.5278 35.7275 30.5278 35.7301 30.5291C35.7328 30.5291 35.7357 30.5291 35.7396 30.5304C35.7566 30.5329 35.7766 30.5329 35.7952 30.5355C35.8191 30.5381 35.843 30.5446 35.8616 30.5639C36.4478 30.7097 37.0323 30.8632 37.6067 31.0476C37.6596 31.0644 37.7205 31.0696 37.7617 31.1134C37.9115 31.1392 38.0482 31.1998 38.1886 31.2501C38.3122 31.294 38.4355 31.3404 38.5575 31.3882C38.9062 31.5223 39.2483 31.6706 39.5797 31.8424C39.7108 31.9092 39.8397 31.9801 39.9669 32.0549C40.1354 32.1545 40.2996 32.2589 40.4537 32.3788C40.4988 32.4135 40.5119 32.4278 40.4945 32.4485L40.4975 32.4472Z" fill="#007FFF"/>
<path d="M44.153 23.1508C44.1373 22.8425 44.0166 22.5703 43.8322 22.3227C43.5724 21.9705 43.2369 21.6958 42.8735 21.4533C42.2543 21.0405 41.5765 20.7374 40.8831 20.4665C40.4971 20.3156 40.1063 20.1814 39.7108 20.0576C39.109 19.8692 38.4976 19.708 37.8837 19.561C37.116 19.3778 36.3441 19.2191 35.5672 19.0811C35.0936 18.9973 34.619 18.916 34.1431 18.8489C34.1283 18.8489 34.1136 18.8477 34.0992 18.8464C34.0914 18.8464 34.0819 18.845 34.074 18.8438C34.0567 18.8425 34.0381 18.8399 34.0211 18.8386C33.9812 18.8335 33.9399 18.8257 33.9017 18.8167C33.7597 18.7947 33.6191 18.7728 33.4774 18.7496C33.395 18.738 33.3129 18.7264 33.2308 18.7161C33.1988 18.7109 33.167 18.7071 33.1353 18.7032C32.8076 18.6645 32.4788 18.6271 32.1512 18.5858C32.0558 18.5742 31.9603 18.5664 31.8648 18.5561C31.7694 18.5471 31.6739 18.5355 31.5797 18.5174C30.9432 18.4594 30.3067 18.3975 29.6689 18.3472C29.5801 18.3407 29.4912 18.333 29.4024 18.3265C28.8534 18.284 28.3044 18.2478 27.7541 18.222C27.4903 18.2104 27.2251 18.1962 26.9598 18.1833C26.7596 18.1743 26.558 18.164 26.3578 18.1562C25.899 18.1395 25.4415 18.1292 24.9827 18.1201C24.8117 18.1163 24.6406 18.1137 24.4709 18.1111C24.4709 18.1111 24.7851 16.8805 24.9111 16.2588C25.0066 15.7931 25.0888 15.3249 25.1617 14.8554C25.2095 14.5406 25.2519 14.2259 25.289 13.9099C25.3275 13.5796 25.358 13.2481 25.3792 12.9153C25.4017 12.5606 25.4163 12.2046 25.4243 11.8499C25.4336 11.3739 25.4177 10.8992 25.3819 10.4245C25.358 10.1111 25.3275 9.79892 25.2864 9.48678C25.2307 9.05981 25.1511 8.638 25.0464 8.22007C24.9628 7.88598 24.8673 7.55319 24.7401 7.23071C24.7334 7.23071 24.7268 7.23071 24.7202 7.23329C24.7135 7.23329 24.7069 7.23587 24.7016 7.23717C24.6804 7.2436 24.6618 7.25394 24.6419 7.26167C24.085 7.48869 23.5586 7.77118 23.0507 8.08592C23.0215 8.104 22.9897 8.11819 22.9778 8.15299C23.0998 8.90244 23.1568 9.65574 23.1634 10.4142C23.174 11.499 23.0918 12.5774 22.9393 13.6519C22.8239 14.4607 22.6715 15.263 22.4858 16.0601C22.3254 16.7515 22.1397 17.4365 21.9328 18.115C21.433 18.1201 20.9317 18.1356 20.4318 18.1511C19.7661 18.173 19.1004 18.2027 18.4361 18.244C17.85 18.2801 17.2626 18.3175 16.6765 18.3665C15.9153 18.431 15.1555 18.5032 14.3983 18.5935C14.2167 18.9599 14.0403 19.3288 13.8706 19.7003C13.6173 20.2549 13.3786 20.8148 13.1545 21.3797C13.1651 21.3784 13.1744 21.3772 13.185 21.3759C14.0695 21.2546 14.9579 21.154 15.8464 21.0676C16.101 21.0431 16.3556 21.0134 16.6115 20.9915C17.2427 20.9399 17.8752 20.9051 18.5077 20.8664C19.3299 20.8148 20.1533 20.7825 20.9781 20.7593C20.9887 20.7593 20.998 20.7593 21.0086 20.7593C21.7101 20.7399 22.4115 20.7309 23.1143 20.7296C23.2907 20.7296 23.4671 20.7296 23.6448 20.7309C24.0452 20.7322 24.447 20.7361 24.8475 20.7425C25.3023 20.7503 25.7558 20.767 26.2106 20.7825C26.2146 20.7825 26.2186 20.7825 26.2226 20.7825C26.6575 20.798 27.0925 20.8135 27.5274 20.8341C27.8615 20.8496 28.1957 20.8728 28.5299 20.8973C28.6015 20.9025 28.6731 20.9076 28.7447 20.9128C29.2459 20.9476 29.7458 20.9837 30.2471 21.0212C30.3704 21.0302 30.4924 21.0469 30.6157 21.0585C31.2787 21.1153 31.9404 21.1875 32.6008 21.2701C32.8965 21.3062 33.1909 21.3449 33.4866 21.3836C34.1084 21.4675 34.7292 21.5681 35.3471 21.6725C35.9424 21.7745 36.5364 21.8893 37.1252 22.0195C37.6436 22.1343 38.1594 22.2595 38.6713 22.3949C39.3438 22.5729 40.0039 22.7806 40.6564 23.0154C41.22 23.2192 41.7649 23.4591 42.2929 23.739C42.6559 23.9325 43.0007 24.1492 43.315 24.4123C43.6003 24.651 43.8495 24.9193 44.0153 25.2546C44.0814 25.3875 44.1121 25.5307 44.1543 25.67C44.156 25.3927 44.1586 25.1153 44.1599 24.838C44.1599 24.4265 44.1599 24.0138 44.1599 23.6022C44.1599 23.4526 44.1651 23.3017 44.1573 23.1534L44.153 23.1508Z" fill="#FF1100"/>
<path d="M27.4146 3.47315C27.3125 3.44092 27.2077 3.41769 27.1096 3.37254C27.1096 3.35965 27.111 3.34673 27.1123 3.33385C27.2343 3.36996 27.3496 3.42027 27.4571 3.48734C27.4425 3.48218 27.4279 3.4783 27.4133 3.47315H27.4146Z" fill="#404A5A"/>
<path d="M27.0579 3.35195C27.0579 3.35195 27.0672 3.35583 27.0698 3.35968C27.0698 3.35968 27.0685 3.35968 27.0672 3.35968C27.0566 3.36614 27.0499 3.36098 27.0433 3.35195C27.0486 3.35067 27.0526 3.34937 27.0579 3.35195Z" fill="#404A5A"/>
<path d="M14.728 10.8554C14.728 10.8554 14.7256 10.8647 14.7219 10.8682C14.7219 10.8682 14.7208 10.8694 14.7196 10.8705C14.7172 10.8729 14.7135 10.874 14.71 10.874C14.71 10.8729 14.71 10.8717 14.71 10.8705V10.867C14.71 10.867 14.7172 10.8601 14.7208 10.8577C14.7232 10.8577 14.7256 10.8554 14.728 10.8554Z" fill="#404A5A"/>
<path d="M15.2761 10.1782C15.2761 10.1782 15.2669 10.1872 15.2616 10.1898C15.2549 10.1936 15.2483 10.1962 15.239 10.1988C15.239 10.1936 15.239 10.1898 15.239 10.1859C15.239 10.182 15.239 10.1782 15.2404 10.1756C15.243 10.1691 15.2457 10.1627 15.2496 10.1575C15.2536 10.1523 15.2602 10.1485 15.2655 10.1433C15.2722 10.1395 15.2788 10.1356 15.2854 10.1317C15.2868 10.1407 15.2868 10.1485 15.2854 10.1562C15.2854 10.1627 15.2814 10.1665 15.2788 10.1717C15.2788 10.173 15.2761 10.1756 15.2761 10.1768V10.1782Z" fill="#404A5A"/>
<path d="M15.4838 9.90595C15.4838 9.90595 15.4813 9.90595 15.4813 9.90725C15.48 9.90725 15.4774 9.90725 15.4762 9.90725C15.4749 9.90725 15.4736 9.90725 15.4711 9.90725C15.4774 9.89952 15.4838 9.89048 15.4902 9.88275C15.4902 9.88533 15.4902 9.8866 15.4902 9.88918C15.4902 9.89564 15.4877 9.89952 15.4826 9.90337L15.4838 9.90595Z" fill="#215CB5"/>
<path d="M15.5918 9.74733C15.5918 9.74087 15.5969 9.73571 15.602 9.73314C15.6045 9.73314 15.6071 9.73183 15.6096 9.73056C15.6096 9.73441 15.6084 9.73571 15.6071 9.73829C15.6071 9.74087 15.6071 9.74345 15.6045 9.74602C15.6045 9.74733 15.602 9.7486 15.6007 9.74991C15.5982 9.75121 15.5943 9.75248 15.5918 9.75379C15.5918 9.75121 15.5918 9.74991 15.5918 9.74733Z" fill="#215CB5"/>
<path d="M25.0052 2.43991C25.0304 2.42959 25.0464 2.43991 25.061 2.45926C25.0384 2.46442 25.0145 2.46958 25.0052 2.4412V2.43991Z" fill="#FEC35E"/>
<path d="M25.0039 2.43996H25.0056L25.0039 2.44161V2.43996Z" fill="#FDBF41"/>
<path d="M18.7212 6.4993C18.7291 6.49287 18.7358 6.48642 18.7437 6.47868C18.7437 6.47996 18.7437 6.48253 18.7437 6.48384C18.7437 6.48899 18.7411 6.49157 18.7384 6.49545H18.7371C18.7371 6.49545 18.7291 6.4993 18.7212 6.4993Z" fill="#404A5A"/>
<path d="M18.8764 6.34708C18.883 6.3432 18.891 6.34062 18.9002 6.34062C18.9002 6.35224 18.8976 6.35869 18.8923 6.36127C18.8843 6.36643 18.8697 6.36258 18.8591 6.36385C18.8644 6.35612 18.8697 6.35096 18.8764 6.34708Z" fill="#404A5A"/>
<path d="M18.975 6.28265C18.975 6.28265 18.9724 6.29296 18.9686 6.29684C18.9686 6.29684 18.9661 6.29812 18.9648 6.29942C18.9622 6.30069 18.9584 6.302 18.9546 6.302C18.9609 6.29423 18.9686 6.28523 18.975 6.27747C18.975 6.28007 18.975 6.28135 18.975 6.28392V6.28265Z" fill="#404A5A"/>
<path d="M20.2891 5.26874C20.2891 5.26874 20.2865 5.2739 20.2853 5.27647C20.2814 5.28035 20.2763 5.28163 20.2687 5.28163C20.275 5.2739 20.2827 5.26744 20.2904 5.2597C20.2904 5.26359 20.2904 5.26616 20.2904 5.27005L20.2891 5.26874Z" fill="#404A5A"/>
<path d="M20.2659 5.28293C20.2659 5.28293 20.2659 5.28681 20.2659 5.28808C20.2659 5.29324 20.2633 5.29585 20.2606 5.29712C20.258 5.29842 20.2553 5.29842 20.2501 5.29712C20.2487 5.29712 20.2461 5.29712 20.2448 5.29454C20.2527 5.29066 20.2593 5.28681 20.2673 5.28293H20.2659Z" fill="#404A5A"/>
<path d="M27.1031 3.32748C26.448 3.04368 25.7916 2.76119 25.1366 2.47612C25.11 2.46451 25.0835 2.47354 25.0596 2.45935C25.0371 2.46451 25.0133 2.46967 25.004 2.4413C24.9774 2.4529 24.9523 2.4413 24.927 2.43227C24.3529 2.26458 23.7654 2.21298 23.1674 2.24265C22.3758 2.28263 21.6173 2.47096 20.88 2.74829C20.6479 2.83472 20.4199 2.93017 20.1971 3.03207C20.1414 3.05787 20.0857 3.08367 20.03 3.11076C19.965 3.14172 19.9001 3.17268 19.8364 3.20622C19.7502 3.24879 19.6654 3.29264 19.5792 3.33779C19.1323 3.57512 18.6987 3.83956 18.2783 4.12334C18.1908 4.18269 18.1033 4.24203 18.0171 4.30264L17.9654 4.33875C17.7585 4.48582 17.5556 4.63543 17.3567 4.79022C16.8582 5.17592 16.3795 5.58609 15.9167 6.01564C14.6317 7.20882 13.49 8.5258 12.4451 9.92151C12.4186 9.95762 12.3921 9.99504 12.3656 10.0312C12.3656 10.0312 12.3629 10.0402 12.3603 10.0428C12.3576 10.0453 12.3537 10.0466 12.3484 10.0479C12.2542 10.1782 12.1614 10.3072 12.0672 10.4375C11.9107 10.6542 11.7569 10.8709 11.6058 11.0915C11.4626 11.3004 11.3207 11.512 11.1814 11.7235C11.0701 11.8912 10.9613 12.0602 10.8539 12.2305C10.7584 12.3826 10.663 12.5336 10.5688 12.6858C10.4362 12.9012 10.3049 13.1179 10.175 13.3372C10.11 13.4468 10.0464 13.5552 9.9827 13.6661C9.97606 13.679 9.96681 13.6906 9.95883 13.7035C9.95883 13.7177 9.95353 13.7293 9.94823 13.7409C9.94293 13.7487 9.93763 13.7577 9.93364 13.7654C9.87398 13.8686 9.81563 13.9731 9.75727 14.0776C9.53717 14.4684 9.32234 14.8631 9.11549 15.2604C9.02796 15.4281 8.94177 15.5971 8.85689 15.7661C8.39811 16.6793 7.97244 17.6068 7.58127 18.5471C7.37307 19.0463 7.17551 19.5494 6.9872 20.055C6.88774 20.3233 6.78961 20.5929 6.69547 20.8638C6.52175 21.3643 6.36262 21.8687 6.20748 22.3743C6.14383 22.582 6.08152 22.7909 6.02186 22.9999C6.02052 23.0051 6.01921 23.0102 6.01787 23.0154C5.92373 23.343 5.8362 23.672 5.75401 24.0022C5.67841 24.2988 5.60547 24.5968 5.53786 24.8961C5.47951 25.1515 5.42646 25.4082 5.37343 25.6649C5.3615 25.7255 5.34956 25.7861 5.33762 25.848C5.33232 25.8725 5.32833 25.897 5.32303 25.9216C5.32169 25.9306 5.31904 25.9396 5.31773 25.9499C5.30844 25.9989 5.29784 26.0467 5.28855 26.0957C5.21296 26.4969 5.14535 26.8993 5.087 27.3044C5.02999 27.6952 4.97958 28.0848 4.93716 28.4769C4.92787 28.5646 4.91992 28.6523 4.91063 28.74C4.91063 28.7465 4.90929 28.7529 4.90929 28.7594C4.90269 28.8264 4.89869 28.8742 4.8934 28.9219C4.87482 29.1399 4.85892 29.3592 4.84567 29.5772C4.83239 29.7964 4.8218 30.0157 4.81516 30.235C4.81516 30.2634 4.81516 30.2918 4.81251 30.3202C4.79926 30.742 4.79661 31.1625 4.80986 31.583C4.8231 31.9801 4.84567 32.3763 4.88411 32.7724C4.92123 33.1669 4.97294 33.5605 5.04324 33.9538C5.07771 34.146 5.11484 34.3369 5.15726 34.5265C5.29784 35.1664 5.48746 35.7932 5.74737 36.3997C5.76591 36.442 5.78315 36.4834 5.80307 36.526C5.82162 36.5674 5.8415 36.6097 5.86008 36.651C5.90515 36.749 5.95291 36.8458 6.00197 36.9412C6.08417 37.1013 6.1717 37.2572 6.26453 37.4096C6.5191 37.8274 6.81879 38.2159 7.17417 38.5665C7.267 38.6594 7.36378 38.7472 7.46325 38.8309C7.65022 38.9897 7.84912 39.1354 8.06127 39.2659C8.10108 39.2904 8.14746 39.3044 8.17664 39.3419C8.18063 39.347 8.18462 39.3534 8.18727 39.3597C8.20716 39.3559 8.22174 39.3597 8.22704 39.3804C8.30924 39.3998 8.37554 39.4539 8.45113 39.4864C8.85424 39.6604 9.25604 39.8344 9.65915 40.0088C9.88857 40.1081 10.1193 40.2048 10.35 40.3028L10.3792 40.277C10.3049 40.2319 10.228 40.1892 10.1564 40.1415C10.0808 40.0912 10.0092 40.0384 9.93763 39.9843C9.33693 39.5303 8.86618 38.9639 8.48031 38.3228C8.24559 37.9333 8.05467 37.5244 7.89024 37.1038C7.88625 37.0936 7.88226 37.0844 7.8783 37.0742C7.65817 36.5053 7.49773 35.9195 7.37706 35.3236C7.31207 35.0051 7.26036 34.684 7.21529 34.3614C7.21264 34.3382 7.20864 34.3162 7.206 34.293C7.18477 34.1345 7.16622 33.9745 7.14898 33.8157C7.12376 33.5812 7.10522 33.3477 7.09197 33.1116C7.08929 33.0534 7.08533 32.9954 7.08268 32.9375C7.08268 32.9232 7.08134 32.9076 7.08003 32.8936C7.06809 32.5684 7.05616 32.2433 7.05746 31.9184C7.05746 31.9003 7.05746 31.8821 7.05746 31.8656C7.05746 31.8074 7.05746 31.7494 7.06015 31.6913C7.06809 31.4359 7.07604 31.1818 7.08664 30.9277C7.09197 30.8 7.09858 30.6736 7.10653 30.5459C7.11451 30.4182 7.12246 30.2918 7.13175 30.1641C7.16622 29.7191 7.21264 29.2766 7.26831 28.8342C7.28819 28.6729 7.30942 28.513 7.3333 28.3517C7.35849 28.1724 7.38632 27.9932 7.4155 27.8152C7.43807 27.6746 7.46191 27.534 7.4871 27.3933C7.51497 27.2334 7.54545 27.0748 7.57597 26.9148C7.6144 26.7136 7.65552 26.5136 7.69794 26.3124C7.747 26.0841 7.79741 25.8545 7.85043 25.6275C7.89819 25.4249 7.94725 25.2224 7.99896 25.0199C8.05597 24.7968 8.11433 24.5736 8.17533 24.3517C8.18992 24.3001 8.20581 24.2485 8.22174 24.197C8.23764 24.1453 8.25357 24.0937 8.26682 24.0422C8.29465 23.9338 8.31722 23.8254 8.357 23.7197C8.36629 23.7081 8.38087 23.6965 8.38218 23.6836C8.41401 23.4282 8.50815 23.1895 8.58903 22.9496C8.62485 22.8425 8.65933 22.7342 8.6938 22.6258C8.74153 22.4749 8.78928 22.324 8.83834 22.1731C8.87812 22.0492 8.91923 21.9254 8.963 21.8029C8.98024 21.7551 8.99613 21.7061 9.01337 21.6571C9.03591 21.5952 9.05848 21.5333 9.08101 21.4713C9.17649 21.2134 9.26929 20.9541 9.36611 20.6961C9.40588 20.5903 9.447 20.4833 9.48811 20.3775C9.62997 20.015 9.77585 19.6552 9.927 19.2978C9.96946 19.196 10.0132 19.0953 10.057 18.9947C10.0928 18.9135 10.1272 18.8335 10.1617 18.7522C10.2466 18.5613 10.3328 18.3704 10.419 18.1795C10.4866 18.0299 10.5555 17.8815 10.6258 17.7319C10.6789 17.6171 10.7332 17.5049 10.7876 17.3901C10.9335 17.0857 11.082 16.7838 11.2371 16.4833C11.2637 16.4304 11.2955 16.3801 11.326 16.3298C11.3565 16.2794 11.387 16.2279 11.4135 16.1737C11.8643 15.2437 12.3934 14.3549 12.9384 13.4752C12.9875 13.3965 13.0352 13.3178 13.0843 13.2391C13.1983 13.056 13.3071 12.8703 13.4357 12.6987C13.5166 12.5916 13.5908 12.4833 13.6651 12.3723C13.7393 12.2627 13.8123 12.1518 13.8878 12.0434C14.0417 11.8267 14.1849 11.6023 14.3374 11.3843C14.3573 11.3559 14.3771 11.3275 14.397 11.2991C14.4991 11.156 14.6052 11.0154 14.7086 10.8734C14.7086 10.8722 14.7086 10.8709 14.7086 10.8696V10.8657C14.7086 10.8657 14.7166 10.858 14.7206 10.8554C14.7232 10.8554 14.7259 10.8528 14.7285 10.8528C14.8784 10.6568 15.0282 10.4594 15.1781 10.2633C15.1847 10.2543 15.1926 10.2466 15.1993 10.2388C15.2033 10.2349 15.2059 10.2311 15.2086 10.2285C15.2179 10.2182 15.2271 10.2091 15.2364 10.1988C15.2364 10.1937 15.2364 10.1898 15.2364 10.1859C15.2364 10.1821 15.2364 10.1782 15.2378 10.1756C15.2404 10.1679 15.2431 10.1627 15.247 10.1576C15.251 10.1524 15.2576 10.1485 15.2629 10.1434C15.2696 10.1395 15.2762 10.1356 15.2828 10.1318C15.2868 10.1279 15.2895 10.124 15.2921 10.1201C15.3505 10.0492 15.4101 9.97827 15.4685 9.90732C15.4751 9.89959 15.4817 9.89055 15.4884 9.88282C15.4884 9.87763 15.491 9.87378 15.4937 9.86863C15.495 9.86474 15.4977 9.85959 15.5003 9.85571C15.5056 9.84798 15.5122 9.84024 15.5189 9.83379C15.5189 9.83251 15.5215 9.83121 15.5228 9.8299C15.548 9.80671 15.5799 9.78736 15.5865 9.75252C15.5865 9.74994 15.5865 9.74864 15.5865 9.74606C15.5865 9.73964 15.5918 9.73445 15.5971 9.73187C15.5997 9.73187 15.6024 9.7306 15.605 9.72929C15.6223 9.71641 15.6382 9.70352 15.6515 9.68803C15.6554 9.68414 15.6581 9.68029 15.6607 9.67772C15.6713 9.6661 15.6806 9.65319 15.6899 9.6403C15.7019 9.62353 15.7138 9.60546 15.7257 9.58742C15.735 9.5745 15.7443 9.56034 15.7536 9.54742C15.7602 9.53839 15.7668 9.52938 15.7735 9.52162C15.8185 9.46746 15.8649 9.41328 15.9101 9.36039C16.2283 8.98246 16.5558 8.61353 16.8926 8.25236C17.1565 7.96857 17.4297 7.69382 17.7055 7.42165C17.7532 7.37392 17.8023 7.32619 17.85 7.27977C17.9402 7.19205 18.0343 7.11079 18.1272 7.02694C18.1643 6.99341 18.2014 6.96114 18.2372 6.92634C18.2452 6.91988 18.2518 6.91214 18.2598 6.90569C18.3751 6.79734 18.4932 6.68897 18.6098 6.5819C18.6125 6.57933 18.6151 6.57805 18.6178 6.57548C18.6483 6.54837 18.6828 6.52387 18.7146 6.49937C18.7225 6.49291 18.7292 6.48645 18.7371 6.47872C18.7398 6.47614 18.7411 6.47487 18.7438 6.47226C18.7796 6.43614 18.8167 6.40134 18.8525 6.36522C18.8578 6.35746 18.8631 6.3523 18.8697 6.34845C18.8764 6.34457 18.8843 6.34199 18.8936 6.34199C18.9042 6.34069 18.9135 6.33554 18.9214 6.33038C18.9267 6.3265 18.9321 6.32134 18.9374 6.31619C18.9413 6.31231 18.944 6.30715 18.948 6.302C18.9546 6.29427 18.9626 6.28523 18.9692 6.2775C19.0633 6.19624 19.1575 6.11625 19.2543 6.03756C19.2689 6.02598 19.2835 6.01436 19.2981 6.00144C19.3909 5.92534 19.485 5.85053 19.5805 5.77573C19.794 5.60932 20.0141 5.44809 20.2382 5.29588C20.2462 5.29199 20.2528 5.28815 20.2608 5.28426H20.2621C20.2687 5.27523 20.2767 5.26749 20.2846 5.26104C20.335 5.22492 20.3867 5.1875 20.4371 5.1527C20.5392 5.08047 20.644 5.01082 20.7474 4.94244C20.7991 4.9089 20.8522 4.87406 20.9052 4.84183C20.9582 4.8083 21.0113 4.77476 21.0643 4.74249C21.2248 4.64446 21.3865 4.54901 21.551 4.45744C21.73 4.35683 21.913 4.26007 22.096 4.16719C22.6476 3.89117 23.2178 3.65769 23.8145 3.48485C23.8596 3.47193 23.906 3.45905 23.9511 3.44613C24.2694 3.35971 24.5889 3.29394 24.9138 3.25137C25.0981 3.22684 25.2851 3.21007 25.472 3.20234C25.6126 3.19591 25.7532 3.1946 25.8951 3.19849C25.9428 3.19976 25.9892 3.20106 26.037 3.20364C26.1788 3.21137 26.3194 3.22556 26.46 3.24491C26.6549 3.27071 26.8472 3.30683 27.0394 3.35455C27.0447 3.35325 27.0487 3.35198 27.054 3.35455C27.0593 3.35455 27.0633 3.35844 27.066 3.36229C27.0699 3.36359 27.0752 3.36486 27.0792 3.36617C27.0885 3.36875 27.0964 3.37132 27.1057 3.3752C27.1057 3.36229 27.107 3.3494 27.1084 3.33648C27.1057 3.3339 27.1031 3.33133 27.0991 3.33005L27.1031 3.32748Z" fill="#F1ECE2"/>
<path d="M25.0053 2.43997C24.996 2.39998 24.9562 2.39611 24.927 2.38321C24.3622 2.13942 23.7973 1.89433 23.2297 1.65312C23.0786 1.58862 22.9327 1.51381 22.7762 1.46221C22.759 1.47253 22.7404 1.47123 22.7219 1.46479C22.3334 1.34096 21.9302 1.27904 21.5245 1.25453C21.1518 1.2326 20.7779 1.25453 20.4079 1.30226C20.1029 1.34225 19.8033 1.40416 19.5062 1.48156C18.9294 1.63248 18.3751 1.83758 17.8408 2.09427C17.6352 2.19359 17.4363 2.30582 17.2334 2.4103C17.1658 2.44513 17.0955 2.47608 17.0305 2.51349C16.4497 2.85016 15.8862 3.21262 15.3518 3.61636C15.2178 3.717 15.0813 3.81503 14.9566 3.92464C14.8757 3.9956 14.7975 4.06782 14.71 4.12974C14.6941 4.14136 14.6768 4.15297 14.6569 4.16458C14.6424 4.17747 14.6278 4.18908 14.6132 4.2007V4.20327C14.6065 4.22004 14.5999 4.23554 14.5893 4.24454C14.5827 4.24973 14.5761 4.25231 14.5681 4.25358C14.5641 4.25358 14.5588 4.25358 14.5548 4.25358H14.5522C14.5522 4.25358 14.5442 4.251 14.5389 4.24973C14.5349 4.25231 14.531 4.25488 14.5283 4.25746C14.4819 4.28969 14.4567 4.34518 14.4143 4.37742C14.4076 4.38257 14.401 4.38645 14.3944 4.3903C14.283 4.44707 14.2154 4.54898 14.1159 4.61863C14.0205 4.6857 13.9409 4.7747 13.8534 4.85338C13.4197 5.24166 13.01 5.65313 12.6042 6.06849C12.4796 6.19621 12.3682 6.3329 12.2488 6.46577C12.1799 6.54188 12.103 6.60895 12.0353 6.68379C11.851 6.88889 11.672 7.09914 11.4903 7.30552C11.3551 7.45901 11.2278 7.61768 11.1071 7.78148C11.0116 7.91178 10.8976 8.02788 10.7955 8.15299C10.4865 8.53869 10.1935 8.93594 9.90045 9.33195C9.61137 9.72281 9.34616 10.1292 9.07167 10.5303C8.82504 10.8902 8.59827 11.263 8.36358 11.6319C8.27736 11.7686 8.20046 11.9105 8.11293 12.0473C7.96309 12.282 7.82388 12.5232 7.69259 12.7683C7.61039 12.8637 7.56133 12.9798 7.49898 13.0869C7.36903 13.3114 7.24441 13.5384 7.13169 13.7719C7.09588 13.8467 7.04416 13.9099 7.00704 13.9847C6.90227 14.1924 6.7962 14.4 6.68613 14.6065C6.41167 15.125 6.17031 15.6577 5.91969 16.1879C5.64784 16.7606 5.40652 17.3475 5.16784 17.9344C5.00606 18.333 4.84297 18.7316 4.71432 19.1418C4.6931 19.2089 4.65332 19.2695 4.62948 19.3353C4.50482 19.6887 4.38017 20.0408 4.26215 20.3956C4.15209 20.7219 4.04866 21.0508 3.94919 21.3798C3.85375 21.6971 3.76223 22.0144 3.67473 22.333C3.50366 22.9509 3.34718 23.5726 3.21326 24.1982C3.17879 24.3646 3.14431 24.5311 3.11116 24.6974C2.99712 25.2637 2.89634 25.8339 2.81413 26.4066C2.73722 26.9509 2.67357 27.4965 2.62318 28.0435C2.6192 28.0938 2.61522 28.1441 2.61124 28.1944C2.58738 28.4937 2.56881 28.7942 2.55688 29.096C2.54229 29.4404 2.53964 29.7848 2.53699 30.1293C2.53699 30.2931 2.55423 30.4582 2.5529 30.6233C2.55025 30.8748 2.57279 31.1251 2.58738 31.3753C2.59268 31.4669 2.59666 31.5598 2.60594 31.6527C2.60727 31.6681 2.60992 31.6849 2.61124 31.7004C2.64174 31.9416 2.66163 32.1841 2.69611 32.424C2.72926 32.6575 2.76241 32.8911 2.80617 33.1218C2.86982 33.4444 2.92949 33.7667 3.03159 34.0801C3.06342 34.1785 3.08066 34.2815 3.10983 34.3821C3.17083 34.6013 3.24376 34.818 3.32334 35.0309C3.4387 35.3366 3.57131 35.636 3.71451 35.93C3.93595 36.3815 4.21044 36.8019 4.53266 37.1916C4.83764 37.5617 5.18638 37.8881 5.58553 38.1615C5.60146 38.1732 5.6187 38.1834 5.63594 38.1939C5.66508 38.2117 5.69426 38.2299 5.72343 38.248C5.73936 38.2582 5.7566 38.2687 5.77384 38.2789C5.82951 38.3126 5.8839 38.3473 5.93693 38.3848C5.93693 38.3848 5.93827 38.3848 5.93958 38.3861C5.95551 38.3975 5.9714 38.4093 5.98733 38.422C5.98733 38.4246 5.98998 38.4271 5.99129 38.43C6.00058 38.4427 6.01916 38.444 6.03375 38.4504C6.72325 38.7472 7.41149 39.0438 8.10103 39.3406C8.12886 39.3521 8.15539 39.3702 8.18852 39.3626C8.18457 39.3559 8.18192 39.3508 8.17793 39.3445C8.14875 39.3069 8.10233 39.2929 8.06256 39.2684C7.85172 39.138 7.65151 38.9922 7.46451 38.8335C7.36507 38.7498 7.26825 38.6607 7.17546 38.569C6.82007 38.2184 6.52039 37.8286 6.26578 37.4121C6.17296 37.26 6.08546 37.1038 6.00323 36.9438C5.95416 36.8483 5.90644 36.7516 5.86134 36.6536C5.84145 36.611 5.8229 36.5699 5.80432 36.5273C5.78578 36.4846 5.7672 36.4433 5.74862 36.401C5.48875 35.7945 5.30044 35.1677 5.15855 34.5278C5.11612 34.3382 5.079 34.1473 5.04452 33.9551C4.97557 33.5631 4.92383 33.1695 4.88539 32.7737C4.84693 32.3788 4.82439 31.9817 4.81114 31.5843C4.79786 31.1638 4.80051 30.742 4.81379 30.3215C4.8151 30.2931 4.8151 30.2647 4.81644 30.2363C4.82439 30.017 4.83499 29.7978 4.84693 29.5785C4.86021 29.3605 4.8761 29.1412 4.89468 28.9232C4.89864 28.8755 4.90394 28.8277 4.91058 28.7607C4.91058 28.7542 4.91192 28.7478 4.91192 28.7413C4.91987 28.6536 4.92782 28.5659 4.93842 28.4782C4.97953 28.086 5.03124 27.6952 5.08826 27.3056C5.14795 26.9006 5.21556 26.4981 5.28984 26.097C5.2991 26.048 5.30973 26.0003 5.31899 25.9512C5.32033 25.9422 5.32298 25.9332 5.32432 25.9228C5.32962 25.8983 5.33357 25.8738 5.33891 25.8493C5.35081 25.7874 5.36275 25.7268 5.37469 25.6662C5.4264 25.4095 5.48077 25.1528 5.53912 24.8974C5.60676 24.5981 5.67967 24.3001 5.75526 24.0035C5.8388 23.6732 5.92633 23.3443 6.01916 23.0167C6.01916 23.0115 6.02181 23.0064 6.02311 23.0012C6.08281 22.7922 6.14512 22.5833 6.20877 22.3756C6.36391 21.8699 6.52435 21.3656 6.69676 20.8651C6.7909 20.5942 6.88902 20.3246 6.98846 20.0563C7.17676 19.5494 7.37436 19.0463 7.58252 18.5484C7.97372 17.6081 8.39806 16.6806 8.85818 15.7674C8.94306 15.5984 9.02925 15.4294 9.11674 15.2617C9.32363 14.8644 9.53843 14.4697 9.75856 14.0789C9.81691 13.9744 9.87658 13.8699 9.93493 13.7667C9.94023 13.759 9.94553 13.7499 9.94952 13.7422C9.95612 13.7306 9.96142 13.719 9.96011 13.7048C9.96806 13.6919 9.97735 13.679 9.98399 13.6674C10.0476 13.5578 10.1113 13.4481 10.1763 13.3385C10.3062 13.1204 10.4362 12.9037 10.5701 12.6871C10.6642 12.5348 10.7597 12.3826 10.8552 12.2317C10.9626 12.0614 11.0713 11.8925 11.1827 11.7248C11.322 11.5132 11.4638 11.3017 11.6071 11.0927C11.7582 10.8721 11.912 10.6554 12.0685 10.4387C12.1613 10.3085 12.2555 10.1795 12.3496 10.0492C12.3496 10.0466 12.3496 10.044 12.3496 10.0414C12.3496 10.0401 12.351 10.0376 12.3523 10.0363C12.3549 10.0324 12.3602 10.0311 12.3655 10.0311C12.392 9.99498 12.4173 9.95759 12.4451 9.92148C13.49 8.52578 14.6318 7.21006 15.9167 6.01561C16.3795 5.58606 16.8568 5.17586 17.3568 4.79019C17.5557 4.6354 17.7585 4.48576 17.9654 4.33872L18.0171 4.30261C18.1033 4.24197 18.1908 4.18262 18.2783 4.12332C18.7 3.83953 19.1323 3.57509 19.5792 3.33776C19.664 3.29261 19.7502 3.24873 19.8364 3.20619C19.9014 3.17393 19.965 3.14168 20.03 3.11072C20.0857 3.08363 20.1414 3.05784 20.1971 3.03204C20.4212 2.93013 20.6479 2.83468 20.88 2.74826C21.6173 2.47222 22.3758 2.28389 23.1674 2.24261C23.7641 2.21165 24.3516 2.26325 24.927 2.43223C24.9522 2.43997 24.9775 2.45158 25.004 2.44126L25.0053 2.43997Z" fill="#FDBF41"/>
<path d="M12.3518 10.0344C12.3518 10.0344 12.359 10.0298 12.3639 10.0298C12.3639 10.0344 12.3614 10.0379 12.359 10.0403C12.3566 10.0426 12.3531 10.0438 12.3483 10.0449C12.3483 10.0426 12.3483 10.0403 12.3483 10.0379C12.3483 10.0368 12.3495 10.0344 12.3507 10.0333L12.3518 10.0344Z" fill="#C18B00"/>
<path d="M14.5508 4.21358C14.5588 4.20458 14.5681 4.19939 14.5814 4.19812C14.5893 4.19812 14.5999 4.19812 14.6105 4.2007V4.20327C14.6039 4.22004 14.5973 4.23554 14.5867 4.24454C14.58 4.24973 14.5734 4.25231 14.5654 4.25358C14.5615 4.25358 14.5562 4.25358 14.5522 4.25358H14.5495C14.5495 4.25358 14.5416 4.251 14.5363 4.24973C14.5389 4.23423 14.5442 4.22135 14.5522 4.21358H14.5508Z" fill="#C18B00"/>
<path d="M22.6515 1.40936C22.1384 1.18621 21.6239 0.969502 21.1134 0.743768C20.5286 0.484494 19.9212 0.324544 19.2781 0.294876C19.1163 0.294876 18.9532 0.294876 18.7915 0.296166C18.7278 0.296166 18.6642 0.296166 18.6019 0.296166C18.2783 0.312935 17.9587 0.359372 17.6418 0.425159C16.7069 0.618646 15.8371 0.974659 15.003 1.42097C14.1636 1.86986 13.3839 2.40646 12.6427 2.99467C12.5485 3.06948 12.4464 3.13784 12.3642 3.22814C12.3576 3.23072 12.3509 3.23588 12.347 3.24233V3.25007C12.347 3.25007 12.3443 3.25007 12.343 3.25007C12.3403 3.25007 12.339 3.25007 12.339 3.25007C12.3178 3.26683 12.2966 3.28233 12.2754 3.2991C11.4546 3.98274 10.6921 4.72443 9.97074 5.50741C9.11412 6.43872 8.3238 7.42165 7.58519 8.44327C6.4846 9.96536 5.50996 11.5623 4.64141 13.2198C4.05529 14.3369 3.52223 15.4784 3.04222 16.6432C2.54231 17.8583 2.0835 19.0889 1.71486 20.3491C1.67375 20.4884 1.62337 20.6265 1.58226 20.7658C1.27992 21.8041 1.01869 22.8516 0.813159 23.9119C0.638122 24.8109 0.498889 25.7139 0.407392 26.6246C0.339766 27.285 0.293354 27.9467 0.296007 28.611C0.296007 28.9129 0.297332 29.2147 0.298658 29.5165C0.302636 29.5578 0.303963 29.5991 0.305289 29.6404C0.306615 29.7049 0.305289 29.7681 0.302637 29.8326C0.305289 30.2002 0.337113 30.5652 0.372917 30.9316C0.432588 31.5288 0.52541 32.1195 0.66199 32.704C0.831724 33.4364 1.06378 34.1473 1.39396 34.8272C1.74801 35.5546 2.19754 36.2164 2.80486 36.7697C3.15891 37.0924 3.54876 37.3644 3.98768 37.5642C4.37754 37.7424 4.7727 37.9088 5.16786 38.0778C5.43836 38.1939 5.70622 38.3189 5.98202 38.422C5.96613 38.4106 5.9502 38.3975 5.9343 38.3861C5.9343 38.3861 5.93296 38.3861 5.93165 38.3848C5.8786 38.3473 5.82423 38.3126 5.76853 38.2789C5.75129 38.2687 5.7354 38.2582 5.71816 38.248C5.68898 38.2299 5.6598 38.213 5.63063 38.1939C5.61339 38.1834 5.59749 38.1719 5.58026 38.1614C5.18111 37.8869 4.8337 37.5617 4.52738 37.1916C4.20513 36.8019 3.93067 36.3815 3.7092 35.93C3.56469 35.636 3.43209 35.3366 3.31803 35.0309C3.23847 34.818 3.16554 34.6013 3.10454 34.3821C3.07669 34.2828 3.05813 34.1797 3.02631 34.0801C2.9242 33.7667 2.86321 33.4444 2.80088 33.1218C2.7558 32.8911 2.72397 32.6575 2.69082 32.424C2.65634 32.1841 2.63513 31.9416 2.60595 31.7004C2.60463 31.6849 2.60198 31.6681 2.60065 31.6526C2.59137 31.5611 2.58739 31.4682 2.58209 31.3753C2.56883 31.125 2.54628 30.8748 2.54761 30.6233C2.54761 30.4595 2.53037 30.2944 2.5317 30.1292C2.53435 29.7848 2.53833 29.4404 2.55159 29.096C2.56352 28.7955 2.58209 28.4949 2.60595 28.1944C2.60993 28.1441 2.61391 28.0938 2.61789 28.0435C2.66828 27.4965 2.73193 26.9509 2.80884 26.4066C2.89105 25.8338 2.99183 25.2637 3.10587 24.6974C3.13902 24.531 3.1735 24.3646 3.20797 24.1982C3.34057 23.5713 3.49839 22.9509 3.66942 22.333C3.75695 22.0144 3.84844 21.6958 3.94392 21.3798C4.04339 21.0495 4.14681 20.7219 4.25688 20.3956C4.3762 20.0408 4.50086 19.6874 4.62417 19.3353C4.64671 19.2682 4.68782 19.2076 4.70905 19.1418C4.839 18.7316 5.00078 18.333 5.16253 17.9344C5.40124 17.3475 5.64257 16.7619 5.91441 16.1879C6.16503 15.659 6.40636 15.125 6.68085 14.6065C6.78958 14.4 6.89699 14.1924 7.00176 13.9847C7.03889 13.9112 7.09191 13.8467 7.12638 13.7719C7.2391 13.5384 7.36375 13.3114 7.49371 13.0869C7.55602 12.9799 7.60508 12.8638 7.68731 12.7683C7.81857 12.5233 7.95782 12.282 8.10766 12.0473C8.19519 11.9118 8.27209 11.7687 8.35827 11.6319C8.59165 11.263 8.81843 10.8915 9.06639 10.5304C9.34086 10.1292 9.60606 9.72284 9.89514 9.33202C10.1882 8.93601 10.4813 8.53872 10.7902 8.15303C10.891 8.02661 11.005 7.91181 11.1018 7.78155C11.2225 7.61772 11.3498 7.45904 11.4851 7.30555C11.6667 7.09787 11.8458 6.88762 12.0301 6.68382C12.0977 6.60902 12.1746 6.54191 12.2436 6.46583C12.3629 6.33423 12.4743 6.19624 12.5989 6.06852C13.0047 5.65317 13.4144 5.24169 13.848 4.85342C13.9355 4.77473 14.0151 4.68573 14.1106 4.61866C14.21 4.54901 14.2763 4.4471 14.389 4.39037C14.3957 4.38648 14.4036 4.3826 14.4089 4.37745C14.4514 4.34522 14.4766 4.28973 14.523 4.25749C14.527 4.25492 14.5309 4.25234 14.5336 4.24976C14.5362 4.23427 14.5415 4.22138 14.5495 4.21365C14.5574 4.20461 14.5667 4.19946 14.58 4.19815C14.588 4.19815 14.5986 4.19815 14.6092 4.20073C14.6237 4.18912 14.6383 4.17623 14.6529 4.16462C14.6728 4.15173 14.6887 4.14139 14.706 4.12978C14.7935 4.06786 14.8717 3.99693 14.9526 3.92471C15.0772 3.81376 15.2152 3.71703 15.3478 3.61639C15.8822 3.21265 16.4457 2.85019 17.0265 2.51353C17.0928 2.47612 17.1618 2.44516 17.2294 2.41033C17.4323 2.30456 17.6312 2.19234 17.8367 2.09431C18.3711 1.83761 18.9267 1.63252 19.5022 1.4816C19.7993 1.4042 20.0989 1.34358 20.4039 1.3023C20.7739 1.25328 21.1478 1.23264 21.5205 1.25457C21.9276 1.27908 22.3293 1.34099 22.7178 1.46483C22.7378 1.47128 22.755 1.47257 22.7722 1.46225C22.7391 1.42742 22.6887 1.42742 22.6476 1.40936H22.6515Z" fill="#FF1100"/>
<path d="M14.565 4.06882C14.565 4.06882 14.5587 4.06393 14.5562 4.06273C14.5599 4.06517 14.5624 4.06638 14.565 4.06882Z" fill="#FF1100"/>
<path d="M19.2781 0.293467H18.7914C18.7278 0.296047 18.6641 0.296046 18.6018 0.296046C18.5992 0.288307 18.5952 0.280567 18.5925 0.272828C18.8233 0.272828 19.0553 0.272828 19.286 0.270248C19.2834 0.277988 19.2807 0.285727 19.2781 0.293467Z" fill="#FEC35E"/>
<path d="M12.3428 3.2509H12.339V3.24358H12.3478V3.25214C12.3478 3.25214 12.3453 3.25214 12.344 3.25214L12.3428 3.2509Z" fill="#C18B00"/>
<path opacity="0.48" d="M40.4774 32.4654C40.5435 32.4151 40.5435 32.4097 40.4774 32.3594C40.3234 32.2394 40.1592 32.1351 39.9907 32.0358C39.4285 31.7042 38.8279 31.4514 38.2123 31.2322C38.072 31.1818 37.9353 31.1212 37.7855 31.0954C37.7443 31.0503 37.6834 31.0464 37.6304 31.0296C37.0561 30.8439 36.4716 30.6917 35.8854 30.5459C35.8363 30.542 35.7886 30.5317 35.7461 30.5085C35.4716 30.4504 35.1972 30.3911 34.9241 30.3331C34.4161 30.226 33.9055 30.1331 33.3936 30.0493C33.0145 29.9874 32.6339 29.9293 32.2533 29.8739C31.9563 29.8313 31.6592 29.7874 31.3596 29.7668C31.3105 29.7591 31.2614 29.75 31.2111 29.7436C30.1622 29.6185 29.1119 29.5243 28.0577 29.4534C27.3695 29.4082 26.6813 29.3721 25.9918 29.3463C25.0914 29.3128 24.1897 29.2973 23.288 29.2973C22.1702 29.2973 21.0536 29.3244 19.9384 29.3772C18.6495 29.4379 17.3633 29.5333 16.081 29.6726C15.8715 29.6958 15.6593 29.7088 15.4525 29.7526C15.4101 29.741 15.369 29.7526 15.3265 29.7565C14.4129 29.8661 13.5032 30.0016 12.5989 30.168C12.0645 30.266 11.5328 30.3744 11.005 30.4969L10.9944 30.5137C10.9944 30.5137 10.8578 32.4253 11.1601 34.2917C11.6813 34.4117 12.2051 34.5189 12.7302 34.6144C13.1996 34.6993 13.6703 34.7808 14.1437 34.8466C14.8067 34.9392 15.471 35.0334 16.138 35.1005C16.7865 35.1664 17.4336 35.2348 18.0833 35.2813C18.4679 35.3083 18.8511 35.3405 19.2357 35.3624C19.8045 35.3945 20.3747 35.4219 20.9436 35.441C21.4634 35.4591 21.9832 35.4735 22.503 35.4798C23.3344 35.49 24.1672 35.4862 24.9986 35.4696C25.7995 35.4528 26.6004 35.4232 27.4 35.3793C28.3535 35.3277 29.3056 35.2542 30.2563 35.1588C31.7056 35.0127 33.147 34.8167 34.5751 34.5396C35.8229 34.2971 37.0561 34.0003 38.2522 33.572C38.7733 33.3862 39.2839 33.1733 39.7693 32.9102C40.0159 32.7775 40.2547 32.633 40.4774 32.4641V32.4654Z" fill="url(#paint0_linear_16301_10455)"/>
</g>
<path d="M59.8315 15.2433L66.1496 30.9437L72.4281 15.2433H76.3136L67.8194 36.0471H64.2364L55.6964 15.2433H59.8315Z" fill="#F3F4F6"/>
<path d="M84.4657 32.0244C85.6622 32.7727 87.1152 33.2268 88.6469 33.2268C92.9596 33.2268 96.3323 29.8628 96.3323 25.6292H100.001C100.001 31.6919 94.965 36.469 88.5616 36.469C82.2435 36.469 77.3325 31.7367 77.3325 25.7571C77.3325 19.6496 82.3684 14.8339 88.7719 14.8339C91.9342 14.8339 95.5172 15.9978 97.8644 19.0292L84.4657 32.0244ZM82.1581 29.6965L92.8281 19.2722C91.5924 18.4856 90.1787 18.0699 88.6469 18.0699C84.3803 18.0699 81.0077 21.4338 81.0077 25.6292C81.0077 27.1256 81.4349 28.5326 82.1581 29.6965Z" fill="#F3F4F6"/>
<path d="M104.104 5.73341H108.114V36.0535H104.104V5.73341Z" fill="#F3F4F6"/>
<path d="M112.643 25.6292C112.643 19.4833 117.508 14.8339 123.958 14.8339C130.447 14.8339 135.312 19.4833 135.312 25.6292C135.312 31.8198 130.447 36.469 123.958 36.469C117.508 36.469 112.643 31.8134 112.643 25.6292ZM123.958 32.9773C128.225 32.9773 131.427 29.8181 131.427 25.6292C131.427 21.4786 128.225 18.281 123.958 18.281C119.731 18.281 116.529 21.4786 116.529 25.6292C116.529 29.8245 119.731 32.9773 123.958 32.9773Z" fill="#F3F4F6"/>
<path d="M149.999 36.0535C143.083 36.0535 138.474 31.9031 138.474 25.6293C138.474 19.4003 143.083 15.2497 149.999 15.2497H153.582V5.73993H157.592V36.0599H149.999V36.0535ZM149.999 32.5618H153.582V18.6904H149.999C145.476 18.6904 142.484 21.4723 142.484 25.6229C142.484 29.8246 145.469 32.5618 149.999 32.5618Z" fill="#F3F4F6"/>
<path d="M163.49 15.2431H167.5V21.2674L174.12 14.8274L176.638 17.2768L167.5 26.1214V36.0468H163.49V15.2431Z" fill="#F3F4F6"/>
<path d="M176.895 25.6292C176.895 19.4833 181.76 14.8339 188.209 14.8339C194.698 14.8339 199.563 19.4833 199.563 25.6292C199.563 31.8198 194.698 36.469 188.209 36.469C181.76 36.469 176.895 31.8134 176.895 25.6292ZM188.209 32.9773C192.476 32.9773 195.678 29.8181 195.678 25.6292C195.678 21.4786 192.476 18.281 188.209 18.281C183.982 18.281 180.78 21.4786 180.78 25.6292C180.78 29.8245 183.982 32.9773 188.209 32.9773Z" fill="#F3F4F6"/>
<path d="M204.086 15.2431H208.011V17.7372C211.469 15.2047 212.961 14.8274 214.927 14.8274C217.491 14.8274 219.707 16.1128 220.778 18.1913C224.703 15.2431 226.288 14.8274 228.332 14.8274C232.001 14.8274 234.907 17.4047 234.907 21.3058V36.0468H230.897V21.7215C230.897 19.8093 229.489 18.3959 227.695 18.3959C226.327 18.3959 225.302 18.6837 221.501 21.7599V36.0468H217.491V21.7215C217.491 19.8093 216.084 18.3959 214.289 18.3959C212.922 18.3959 211.896 18.6837 208.097 21.7599V36.0468H204.086V15.2431Z" fill="#F3F4F6"/>
<path d="M246.353 32.0244C247.549 32.7727 249.002 33.2268 250.534 33.2268C254.847 33.2268 258.219 29.8628 258.219 25.6292H261.888C261.888 31.6919 256.852 36.469 250.449 36.469C244.131 36.469 239.22 31.7367 239.22 25.7571C239.22 19.6496 244.256 14.8339 250.659 14.8339C253.821 14.8339 257.404 15.9978 259.751 19.0292L246.353 32.0244ZM244.052 29.6965L254.722 19.2722C253.486 18.4856 252.072 18.0699 250.541 18.0699C246.274 18.0699 242.901 21.4338 242.901 25.6292C242.895 27.1256 243.322 28.5326 244.052 29.6965Z" fill="#F3F4F6"/>
</g>
<defs>
<linearGradient id="paint0_linear_16301_10455" x1="25.8105" y1="30.0079" x2="25.6362" y2="34.6354" gradientUnits="userSpaceOnUse">
<stop offset="0.16" stop-color="#191919"/>
<stop offset="0.97" stop-color="#191919" stop-opacity="0"/>
</linearGradient>
<clipPath id="clip0_16301_10455">
<rect width="262" height="42" fill="white"/>
</clipPath>
</defs>
</svg>
