<svg width="30" height="30" viewBox="0 0 30 30" fill="none" xmlns="http://www.w3.org/2000/svg">
<path d="M25.6065 25.6066C31.4643 19.7487 31.4643 10.2513 25.6065 4.3934C19.7486 -1.46447 10.2511 -1.46447 4.39328 4.3934C-1.46458 10.2513 -1.46459 19.7487 4.39327 25.6066C10.2511 31.4645 19.7486 31.4645 25.6065 25.6066Z" fill="#866AFA"/>
<path fill-rule="evenodd" clip-rule="evenodd" d="M7.03723 12.2788H10.3279V23.3276H7.03723V12.2788ZM8.66153 6.6733C9.75741 6.6733 10.6521 7.56802 10.6521 8.66389C10.6521 9.75977 9.75741 10.6545 8.66153 10.6545C7.56566 10.6545 6.71298 9.75977 6.71298 8.66389C6.71298 7.56802 7.56566 6.6733 8.66153 6.6733ZM12.2764 12.2788H15.525V13.822C16.2156 12.8072 17.3535 12.1557 18.6535 12.1557H19.5482C21.6199 12.1557 23.2862 13.8611 23.2862 15.8937V23.3276H20.0376V22.3128V17.3558C19.9956 16.0978 19.1429 15.1221 17.8849 15.1221C16.6269 15.1221 15.5701 16.0978 15.528 17.3558V23.3276H12.2794V12.2788H12.2764Z" fill="white"/>
</svg>
