<svg width="166" height="31" viewBox="0 0 166 31" fill="none" xmlns="http://www.w3.org/2000/svg">
<g clip-path="url(#clip0_16301_10534)">
<path d="M24.1845 28.9018L19.0269 26.2044V10.6808L24.1845 13.1244V28.9018Z" fill="#00A0D0"/>
<path d="M0 30.9817L5.17183 28.6602V15.3801L0 17.8237V30.9817Z" fill="#00A0D0"/>
<path d="M9.45142 26.9187L14.7473 24.8125V0.154449L9.45142 2.47589V26.9187Z" fill="#00A0D0"/>
<path opacity="0.6" d="M57.2746 28.6161H52.0735V2.41765H57.2746V28.6161Z" fill="#00A0D0"/>
<path d="M41.5358 28.664V26.8614C40.201 28.3332 38.8286 28.8849 36.7522 28.8849C34.8238 28.8849 33.1178 28.2965 32.0427 27.1555C30.188 25.3162 30.0403 22.2984 30.0403 19.0606C30.0403 15.8594 30.188 12.8425 32.0427 11.0023C33.1178 9.86221 34.7897 9.27293 36.7153 9.27293C38.6809 9.27293 40.1255 9.75132 41.4249 11.1865V2.46556H46.2453V28.664H41.5358ZM38.1256 13.5784C35.2709 13.5784 34.8626 15.9704 34.8626 19.0606C34.8626 22.1508 35.2709 24.5803 38.1256 24.5803C40.9805 24.5803 41.427 22.1518 41.427 19.0606C41.427 15.9694 40.9798 13.5784 38.1238 13.5784H38.1256Z" fill="#00A0D0"/>
<path d="M66.1221 28.664V17.6997H57.185V28.664H52.03V2.46556H57.185V13.1733H66.1221V2.46556H71.2767V28.664H66.1221Z" fill="#00A0D0"/>
<path d="M77.4326 28.664V2.46556H94.8247V7.02856H82.5865V13.1733H93.0062V17.7363H82.5865V24.102H94.8247V28.664H77.4326Z" fill="#00A0D0"/>
<path d="M117.371 24.8379C115.477 27.4864 112.995 28.664 109.398 28.664H99.8677V2.46556H109.398C112.997 2.46556 115.48 3.64318 117.371 6.29265C118.966 8.57368 119.04 11.1865 119.04 15.5652C119.04 19.9441 118.966 22.5559 117.371 24.8379ZM112.814 8.64794C111.962 7.58025 110.663 7.02856 108.958 7.02856H105.027V24.102H108.958C110.663 24.102 111.962 23.5493 112.814 22.4826C113.778 21.3416 113.889 19.6865 113.889 15.5652C113.889 11.444 113.774 9.78795 112.814 8.64794Z" fill="#00A0D0"/>
<path d="M143.106 17.9177C143.106 21.7082 142.513 23.9525 140.585 25.9065C138.36 28.2242 135.949 28.8868 133.131 28.8868C130.128 28.8868 127.902 27.8933 126.086 26.1274C123.452 23.5146 123.415 20.5343 123.415 15.5672C123.415 10.6 123.452 7.6188 126.086 5.00692C127.902 3.24095 130.128 2.24753 133.131 2.24753C139.25 2.24753 142.365 6.2579 143.069 10.6367H137.878C137.285 8.09905 135.69 6.80959 133.131 6.80959C131.685 6.80959 130.609 7.36128 129.831 8.20808C128.83 9.2748 128.57 10.5577 128.57 15.5672C128.57 20.5343 128.83 21.8595 129.831 22.9629C130.609 23.8087 131.685 24.3238 133.131 24.3238C134.725 24.3238 135.949 23.7721 136.803 22.8519C137.655 21.8595 137.989 20.7185 137.989 19.3566V18.398H133.131V14.0935H143.106V17.9177Z" fill="#00A0D0"/>
<path d="M148.372 28.664V2.46556H165.764V7.02856H153.527V13.1733H163.946V17.7363H153.527V24.102H165.764V28.664H148.372Z" fill="#00A0D0"/>
</g>
<defs>
<clipPath id="clip0_16301_10534">
<rect width="166" height="31" fill="white"/>
</clipPath>
</defs>
</svg>
