<svg width="12" height="17" viewBox="0 0 12 17" fill="none" xmlns="http://www.w3.org/2000/svg">
<g clip-path="url(#clip0_16301_6315)">
<path d="M5.59407 3.00517C5.71063 3.00517 5.81262 3.03431 5.90005 3.09259C5.98747 3.15087 6.05668 3.22736 6.10767 3.32207L7.53921 6.37091L10.7192 6.86266C10.8212 6.87723 10.9122 6.9173 10.9924 6.98286C11.0725 7.04843 11.129 7.13221 11.1618 7.2342C11.1945 7.33619 11.2 7.43636 11.1781 7.53471C11.1563 7.63306 11.1089 7.72231 11.0361 7.80244L8.7194 10.1847L9.26579 13.5504C9.28036 13.6524 9.26761 13.7526 9.22754 13.8509C9.18747 13.9493 9.12191 14.0294 9.03084 14.0914C8.93978 14.1533 8.84325 14.1879 8.74126 14.1952C8.63927 14.2025 8.53727 14.1806 8.43528 14.1296L5.59407 12.556L2.75286 14.1296C2.65815 14.1806 2.5598 14.2025 2.45781 14.1952C2.35582 14.1879 2.25929 14.1533 2.16823 14.0914C2.07716 14.0294 2.01159 13.9493 1.97153 13.8509C1.93146 13.7526 1.91871 13.6524 1.93328 13.5504L2.47967 10.1847L0.162986 7.80244C0.0901348 7.72231 0.0427812 7.63306 0.0209258 7.53471C-0.000929686 7.43636 0.00453418 7.33619 0.0373174 7.2342C0.0701006 7.13221 0.126561 7.04843 0.206697 6.98286C0.286834 6.9173 0.377898 6.87723 0.479891 6.86266L3.65986 6.37091L5.09139 3.32207C5.14239 3.22736 5.2116 3.15087 5.29902 3.09259C5.38644 3.03431 5.48479 3.00517 5.59407 3.00517ZM5.59407 4.88474C5.55036 4.97944 5.37552 5.35099 5.06954 5.99937L4.54501 7.114C4.50858 7.20142 4.45394 7.27245 4.38109 7.32709C4.30824 7.38173 4.22446 7.41633 4.12975 7.4309L1.72565 7.80244L3.48502 9.60552C3.60887 9.73665 3.65986 9.89692 3.63801 10.0863L3.22275 12.5888L5.3318 11.4305C5.41194 11.3795 5.50118 11.354 5.59953 11.354C5.69788 11.354 5.78713 11.3795 5.86726 11.4305L7.97632 12.5888L7.56106 10.0863C7.53921 9.89692 7.5902 9.73665 7.71405 9.60552L9.47342 7.80244L7.06931 7.4309C6.97461 7.41633 6.89083 7.38173 6.81798 7.32709C6.74512 7.27245 6.69049 7.20142 6.65406 7.114L5.59407 4.88474Z" fill="#A6B1C2"/>
</g>
<defs>
<clipPath id="clip0_16301_6315">
<rect width="11.19" height="11.2" fill="white" transform="matrix(1 0 0 -1 0 14.2)"/>
</clipPath>
</defs>
</svg>
