<svg width="14" height="14" viewBox="0 0 14 14" fill="none" xmlns="http://www.w3.org/2000/svg">
<path d="M7 0C5.02214 0.0546875 3.37467 0.74056 2.05762 2.05762C0.74056 3.37467 0.0546875 5.02214 0 7C0.0546875 8.97786 0.74056 10.6253 2.05762 11.9424C3.37467 13.2594 5.02214 13.9453 7 14C8.97786 13.9453 10.6253 13.2594 11.9424 11.9424C13.2594 10.6253 13.9453 8.97786 14 7C13.9453 5.02214 13.2594 3.37467 11.9424 2.05762C10.6253 0.74056 8.97786 0.0546875 7 0ZM8.54492 10.6641C8.32617 10.7826 7.96159 10.9056 7.45117 11.0332C6.94076 11.1608 6.47591 11.0742 6.05664 10.7734C5.82878 10.5729 5.71484 10.3177 5.71484 10.0078C5.71484 9.73438 5.76042 9.42904 5.85156 9.0918C5.94271 8.75456 6.07487 8.28971 6.24805 7.69727C6.28451 7.57878 6.31641 7.45117 6.34375 7.31445C6.37109 7.17773 6.38477 7.05013 6.38477 6.93164C6.38477 6.73112 6.34147 6.5944 6.25488 6.52148C6.16829 6.44857 6.02018 6.41667 5.81055 6.42578C5.60091 6.4349 5.38672 6.48047 5.16797 6.5625L5.29102 6.09766C5.51888 5.9974 5.76725 5.90625 6.03613 5.82422C6.30501 5.74219 6.5625 5.69661 6.80859 5.6875C7.19141 5.6875 7.5013 5.77865 7.73828 5.96094C7.97526 6.14323 8.09375 6.40755 8.09375 6.75391C8.09375 6.86328 8.08464 6.99316 8.06641 7.14355C8.04818 7.29395 8.02083 7.43294 7.98438 7.56055L7.56055 9.06445C7.50586 9.23763 7.46484 9.44727 7.4375 9.69336C7.41016 9.93945 7.45117 10.1217 7.56055 10.2402C7.69727 10.3314 7.87728 10.3656 8.10059 10.3428C8.32389 10.32 8.51302 10.2721 8.66797 10.1992L8.54492 10.6641ZM7.84766 4.66211C7.60156 4.66211 7.39648 4.58008 7.23242 4.41602C7.06836 4.25195 6.98633 4.0446 6.98633 3.79395C6.98633 3.54329 7.06836 3.33594 7.23242 3.17188C7.39648 3.00781 7.60156 2.92578 7.84766 2.92578C8.09375 2.92578 8.29883 3.00781 8.46289 3.17188C8.62695 3.33594 8.70898 3.54329 8.70898 3.79395C8.70898 4.0446 8.62695 4.25195 8.46289 4.41602C8.29883 4.58008 8.09375 4.66211 7.84766 4.66211Z" fill="#A6B0C3"/>
</svg>
