<svg width="30" height="30" viewBox="0 0 30 30" fill="none" xmlns="http://www.w3.org/2000/svg">
<path d="M25.6065 25.6066C31.4643 19.7487 31.4643 10.2513 25.6065 4.3934C19.7486 -1.46447 10.2511 -1.46447 4.39328 4.3934C-1.46459 10.2513 -1.46459 19.7487 4.39328 25.6066C10.2511 31.4645 19.7486 31.4645 25.6065 25.6066Z" fill="#866AFA"/>
<path fill-rule="evenodd" clip-rule="evenodd" d="M10.7023 5.69256H19.2952C22.0574 5.69256 24.3272 7.96237 24.3272 10.7246V19.2754C24.3272 22.0376 22.0574 24.3074 19.2952 24.3074H10.7023C7.94009 24.3074 5.67027 22.0376 5.67027 19.2754V10.7246C5.67027 7.96237 7.94009 5.69256 10.7023 5.69256ZM20.0097 8.94416C20.5892 8.94416 21.0786 9.43355 21.0786 10.013C21.0786 10.5925 20.5892 11.0819 20.0097 11.0819C19.3852 11.0819 18.9409 10.5925 18.9409 10.013C18.9409 9.43355 19.3852 8.94416 20.0097 8.94416ZM14.9777 9.92294H15.0228C17.785 9.92294 20.0998 12.2378 20.0998 15C20.0998 17.8042 17.785 20.0771 15.0228 20.0771H14.9777C12.2155 20.0771 9.94569 17.8073 9.94569 15C9.94569 12.2378 12.2155 9.92294 14.9777 9.92294ZM14.9777 11.6583H15.0228C16.8482 11.6583 18.3614 13.1715 18.3614 14.997C18.3614 16.8675 16.8482 18.3807 15.0228 18.3807H14.9777C13.1523 18.3807 11.639 16.8675 11.639 14.997C11.639 13.1715 13.1523 11.6583 14.9777 11.6583ZM10.7473 7.29584H19.2531C21.1687 7.29584 22.7269 8.85409 22.7269 10.7696V19.2304C22.7269 21.1459 21.1687 22.7042 19.2531 22.7042H10.7473C8.8318 22.7042 7.27355 21.1459 7.27355 19.2304V10.7696C7.27355 8.85409 8.8318 7.29584 10.7473 7.29584Z" fill="white"/>
</svg>
