<svg width="16" height="16" viewBox="0 0 16 16" fill="none" xmlns="http://www.w3.org/2000/svg">
<path d="M8.00065 1.3335C4.32454 1.3335 1.33398 4.32405 1.33398 8.00016C1.33398 11.6763 4.32454 14.6668 8.00065 14.6668C11.6768 14.6668 14.6673 11.6763 14.6673 8.00016C14.6673 4.32405 11.6768 1.3335 8.00065 1.3335ZM9.47732 11.4913C9.11012 11.6357 7.83732 12.2435 7.10398 11.5974C6.88512 11.4052 6.77618 11.1613 6.77618 10.8652C6.77618 10.3107 6.95845 9.82736 7.28678 8.66683C7.34452 8.44736 7.41512 8.16296 7.41512 7.93736C7.41512 7.54796 7.26732 7.44463 6.86678 7.44463C6.67118 7.44463 6.45454 7.51403 6.25843 7.58736L6.36676 7.1435C6.80398 6.9657 7.35285 6.74903 7.82285 6.74903C8.52785 6.74903 9.04678 7.1007 9.04678 7.76963C9.04678 7.96236 9.01345 8.30016 8.94345 8.5335L8.53785 9.96796C8.45398 10.258 8.30232 10.8974 8.53732 11.0868C8.76845 11.274 9.31565 11.1746 9.58565 11.0474L9.47732 11.4913ZM8.80732 5.77794C8.34732 5.77794 7.97398 5.40461 7.97398 4.94461C7.97398 4.48461 8.34732 4.11128 8.80732 4.11128C9.26732 4.11128 9.64065 4.48461 9.64065 4.94461C9.64065 5.40461 9.26732 5.77794 8.80732 5.77794Z" fill="#A6B0C3"/>
</svg>
