<svg width="164" height="53" viewBox="0 0 164 53" fill="none" xmlns="http://www.w3.org/2000/svg">
<g clip-path="url(#clip0_16301_8040)">
<g clip-path="url(#clip1_16301_8040)">
<g clip-path="url(#clip2_16301_8040)">
<mask id="mask0_16301_8040" style="mask-type:luminance" maskUnits="userSpaceOnUse" x="0" y="2" width="164" height="48">
<path d="M164 2H0V50H164V2Z" fill="white"/>
</mask>
<g mask="url(#mask0_16301_8040)">
<path d="M6.56055 9.08362L7.46402 11.0721" stroke="#EDC240" stroke-width="2" stroke-miterlimit="10" stroke-linecap="round"/>
<path d="M7.46484 11.0723L8.36832 14.1109" stroke="#EDC240" stroke-width="2" stroke-miterlimit="10" stroke-linecap="round"/>
<path d="M8.36719 14.1107L9.27066 13.0322" stroke="#EDC240" stroke-width="2" stroke-miterlimit="10" stroke-linecap="round"/>
<path d="M9.27148 13.0322L10.175 18.1102" stroke="#EDC240" stroke-width="2" stroke-miterlimit="10" stroke-linecap="round"/>
<path d="M10.1738 18.1103L11.0773 3.91992" stroke="#EDC240" stroke-width="2" stroke-miterlimit="10" stroke-linecap="round"/>
<path d="M11.0779 3.91992L11.9814 4.88315" stroke="#EDC240" stroke-width="2" stroke-miterlimit="10" stroke-linecap="round"/>
<path d="M11.9805 4.8833L12.8839 9.58818" stroke="#EDC240" stroke-width="2" stroke-miterlimit="10" stroke-linecap="round"/>
<path d="M12.8848 9.58801L13.7882 11.8348" stroke="#EDC240" stroke-width="2" stroke-miterlimit="10" stroke-linecap="round"/>
<path d="M13.7891 11.835L14.6925 8.16748" stroke="#EDC240" stroke-width="2" stroke-miterlimit="10" stroke-linecap="round"/>
<path d="M14.6914 8.16748L15.5949 9.8106" stroke="#EDC240" stroke-width="2" stroke-miterlimit="10" stroke-linecap="round"/>
<path d="M15.5957 9.81055L16.4992 11.7956" stroke="#EDC240" stroke-width="2" stroke-miterlimit="10" stroke-linecap="round"/>
<path d="M16.498 11.7956L17.4015 10.7866" stroke="#EDC240" stroke-width="2" stroke-miterlimit="10" stroke-linecap="round"/>
<path d="M17.4023 10.7864L18.3058 12.0605" stroke="#EDC240" stroke-width="2" stroke-miterlimit="10" stroke-linecap="round"/>
<path d="M18.3066 12.0604L19.2101 9.12646" stroke="#EDC240" stroke-width="2" stroke-miterlimit="10" stroke-linecap="round"/>
<path d="M19.2092 9.12664L20.1127 4.24536" stroke="#EDC240" stroke-width="2" stroke-miterlimit="10" stroke-linecap="round"/>
<path d="M20.1133 4.24561L21.0168 7.58927" stroke="#EDC240" stroke-width="2" stroke-miterlimit="10" stroke-linecap="round"/>
<path d="M21.0156 7.58905L21.9191 5.32275" stroke="#EDC240" stroke-width="2" stroke-miterlimit="10" stroke-linecap="round"/>
<path d="M21.9199 5.32275L22.8234 6.47876" stroke="#EDC240" stroke-width="2" stroke-miterlimit="10" stroke-linecap="round"/>
<path d="M22.8223 6.479L23.7257 6.73619" stroke="#EDC240" stroke-width="2" stroke-miterlimit="10" stroke-linecap="round"/>
<path d="M23.7266 6.73596L24.63 8.29771" stroke="#EDC240" stroke-width="2" stroke-miterlimit="10" stroke-linecap="round"/>
<path d="M24.6309 8.29751L25.5343 6.71729" stroke="#EDC240" stroke-width="2" stroke-miterlimit="10" stroke-linecap="round"/>
<path d="M25.5332 6.71752L26.4367 5.01123" stroke="#EDC240" stroke-width="2" stroke-miterlimit="10" stroke-linecap="round"/>
<path d="M26.4375 5.01123L27.341 5.56966" stroke="#EDC240" stroke-width="2" stroke-miterlimit="10" stroke-linecap="round"/>
<path d="M27.3398 5.56982L28.2433 5.60406" stroke="#EDC240" stroke-width="2" stroke-miterlimit="10" stroke-linecap="round"/>
<path d="M28.2439 5.60388L29.1474 6.37589" stroke="#EDC240" stroke-width="2" stroke-miterlimit="10" stroke-linecap="round"/>
<path d="M29.1465 6.37583L30.05 5.74072" stroke="#EDC240" stroke-width="2" stroke-miterlimit="10" stroke-linecap="round"/>
<path d="M30.0508 5.74084L30.9543 6.32123" stroke="#EDC240" stroke-width="2" stroke-miterlimit="10" stroke-linecap="round"/>
<path d="M30.9551 6.32129L31.8586 7.58559" stroke="#EDC240" stroke-width="2" stroke-miterlimit="10" stroke-linecap="round"/>
<path d="M31.8574 7.58545L32.7609 8.40055" stroke="#EDC240" stroke-width="2" stroke-miterlimit="10" stroke-linecap="round"/>
<path d="M32.7617 8.40039L33.6652 10.2632" stroke="#EDC240" stroke-width="2" stroke-miterlimit="10" stroke-linecap="round"/>
<path d="M33.6641 10.2632L34.5675 11.6243" stroke="#EDC240" stroke-width="2" stroke-miterlimit="10" stroke-linecap="round"/>
<path d="M34.5681 11.6245L35.4716 11.194" stroke="#EDC240" stroke-width="2" stroke-miterlimit="10" stroke-linecap="round"/>
<path d="M35.4727 11.1938L36.3761 14.6187" stroke="#EDC240" stroke-width="2" stroke-miterlimit="10" stroke-linecap="round"/>
<path d="M36.3752 14.6189L37.2787 15.2673" stroke="#EDC240" stroke-width="2" stroke-miterlimit="10" stroke-linecap="round"/>
<path d="M37.2793 15.2671L38.1828 15.9812" stroke="#EDC240" stroke-width="2" stroke-miterlimit="10" stroke-linecap="round"/>
<path d="M38.1816 15.9812L39.0851 15.3574" stroke="#EDC240" stroke-width="2" stroke-miterlimit="10" stroke-linecap="round"/>
<path d="M39.0859 15.3573L39.9894 14.0195" stroke="#EDC240" stroke-width="2" stroke-miterlimit="10" stroke-linecap="round"/>
<path d="M39.9883 14.0196L40.8918 12.646" stroke="#EDC240" stroke-width="2" stroke-miterlimit="10" stroke-linecap="round"/>
<path d="M40.8926 12.6462L41.7961 11.5396" stroke="#EDC240" stroke-width="2" stroke-miterlimit="10" stroke-linecap="round"/>
<path d="M41.7969 11.5395L42.7003 10.5205" stroke="#EDC240" stroke-width="2" stroke-miterlimit="10" stroke-linecap="round"/>
<path d="M42.6992 10.5205L43.6027 10.9239" stroke="#EDC240" stroke-width="2" stroke-miterlimit="10" stroke-linecap="round"/>
<path d="M43.6035 10.9238L44.507 13.0089" stroke="#EDC240" stroke-width="2" stroke-miterlimit="10" stroke-linecap="round"/>
<path d="M44.5059 13.0088L45.4093 13.0564" stroke="#EDC240" stroke-width="2" stroke-miterlimit="10" stroke-linecap="round"/>
<path d="M45.4102 13.0564L46.3136 12.0801" stroke="#EDC240" stroke-width="2" stroke-miterlimit="10" stroke-linecap="round"/>
<path d="M46.3125 12.0801L47.216 12.689" stroke="#EDC240" stroke-width="2" stroke-miterlimit="10" stroke-linecap="round"/>
<path d="M47.2168 12.6893L48.1203 13.9484" stroke="#EDC240" stroke-width="2" stroke-miterlimit="10" stroke-linecap="round"/>
<path d="M48.1211 13.9485L49.0246 13.9395" stroke="#EDC240" stroke-width="2" stroke-miterlimit="10" stroke-linecap="round"/>
<path d="M49.0234 13.9395L49.9269 13.9486" stroke="#EDC240" stroke-width="2" stroke-miterlimit="10" stroke-linecap="round"/>
<path d="M49.9277 13.9482L50.8312 16.4303" stroke="#EDC240" stroke-width="2" stroke-miterlimit="10" stroke-linecap="round"/>
<path d="M50.8301 16.4305L51.7336 15.8022" stroke="#EDC240" stroke-width="2" stroke-miterlimit="10" stroke-linecap="round"/>
<path d="M51.7341 15.8022L52.6376 14.6729" stroke="#EDC240" stroke-width="2" stroke-miterlimit="10" stroke-linecap="round"/>
<path d="M52.6367 14.6731L53.5402 14.2822" stroke="#EDC240" stroke-width="2" stroke-miterlimit="10" stroke-linecap="round"/>
<path d="M53.5413 14.2821L54.4447 14.8954" stroke="#EDC240" stroke-width="2" stroke-miterlimit="10" stroke-linecap="round"/>
<path d="M54.4453 14.8955L55.3488 20.9007" stroke="#EDC240" stroke-width="2" stroke-miterlimit="10" stroke-linecap="round"/>
<path d="M55.3477 20.9005L56.2511 20.1816" stroke="#EDC240" stroke-width="2" stroke-miterlimit="10" stroke-linecap="round"/>
<path d="M56.252 20.1816L57.1554 20.3243" stroke="#EDC240" stroke-width="2" stroke-miterlimit="10" stroke-linecap="round"/>
<path d="M57.1543 20.3243L58.0578 19.6304" stroke="#EDC240" stroke-width="2" stroke-miterlimit="10" stroke-linecap="round"/>
<path d="M58.0586 19.6304L58.9621 20.6151" stroke="#EDC240" stroke-width="2" stroke-miterlimit="10" stroke-linecap="round"/>
<path d="M58.9629 20.6151L59.8664 18.2178" stroke="#EDC240" stroke-width="2" stroke-miterlimit="10" stroke-linecap="round"/>
<path d="M59.8655 18.2178L60.769 17.9142" stroke="#EDC240" stroke-width="2" stroke-miterlimit="10" stroke-linecap="round"/>
<path d="M60.7695 17.9142L61.673 15.9238" stroke="#EDC240" stroke-width="2" stroke-miterlimit="10" stroke-linecap="round"/>
<path d="M61.6719 15.9238L62.5753 16.5423" stroke="#EDC240" stroke-width="2" stroke-miterlimit="10" stroke-linecap="round"/>
<path d="M62.5762 16.542L63.4796 16.6944" stroke="#EDC240" stroke-width="2" stroke-miterlimit="10" stroke-linecap="round"/>
<path d="M63.4785 16.6948L64.382 17.0772" stroke="#EDC240" stroke-width="2" stroke-miterlimit="10" stroke-linecap="round"/>
<path d="M64.3828 17.077L65.2863 17.061" stroke="#EDC240" stroke-width="2" stroke-miterlimit="10" stroke-linecap="round"/>
<path d="M65.2871 17.061L66.1906 16.9785" stroke="#EDC240" stroke-width="2" stroke-miterlimit="10" stroke-linecap="round"/>
<path d="M66.1895 16.9785L67.0929 16.0361" stroke="#EDC240" stroke-width="2" stroke-miterlimit="10" stroke-linecap="round"/>
<path d="M67.0938 16.0361L67.9972 17.5527" stroke="#EDC240" stroke-width="2" stroke-miterlimit="10" stroke-linecap="round"/>
<path d="M67.9961 17.5527L68.8996 17.5029" stroke="#EDC240" stroke-width="2" stroke-miterlimit="10" stroke-linecap="round"/>
<path d="M68.9001 17.5032L69.8036 17.5266" stroke="#EDC240" stroke-width="2" stroke-miterlimit="10" stroke-linecap="round"/>
<path d="M69.8027 17.5264L70.7062 18.5082" stroke="#EDC240" stroke-width="2" stroke-miterlimit="10" stroke-linecap="round"/>
<path d="M70.707 18.5084L71.6105 19.1446" stroke="#EDC240" stroke-width="2" stroke-miterlimit="10" stroke-linecap="round"/>
<path d="M71.6113 19.1447L72.5148 18.3555" stroke="#EDC240" stroke-width="2" stroke-miterlimit="10" stroke-linecap="round"/>
<path d="M72.5137 18.3555L73.4171 18.9011" stroke="#EDC240" stroke-width="2" stroke-miterlimit="10" stroke-linecap="round"/>
<path d="M73.418 18.9009L74.3214 20.6272" stroke="#EDC240" stroke-width="2" stroke-miterlimit="10" stroke-linecap="round"/>
<path d="M74.3203 20.6275L75.2238 20.4443" stroke="#EDC240" stroke-width="2" stroke-miterlimit="10" stroke-linecap="round"/>
<path d="M75.2246 20.4442L76.1281 18.6069" stroke="#EDC240" stroke-width="2" stroke-miterlimit="10" stroke-linecap="round"/>
<path d="M76.1289 18.6068L77.0324 15.8892" stroke="#EDC240" stroke-width="2" stroke-miterlimit="10" stroke-linecap="round"/>
<path d="M77.0315 15.8894L77.935 15.7593" stroke="#EDC240" stroke-width="2" stroke-miterlimit="10" stroke-linecap="round"/>
<path d="M77.9355 15.7594L78.839 15.4341" stroke="#EDC240" stroke-width="2" stroke-miterlimit="10" stroke-linecap="round"/>
<path d="M78.8379 15.4341L79.7414 15.8727" stroke="#EDC240" stroke-width="2" stroke-miterlimit="10" stroke-linecap="round"/>
<path d="M79.7422 15.8726L80.6457 16.3349" stroke="#EDC240" stroke-width="2" stroke-miterlimit="10" stroke-linecap="round"/>
<path d="M80.6445 16.335L81.548 15.0518" stroke="#EDC240" stroke-width="2" stroke-miterlimit="10" stroke-linecap="round"/>
<path d="M81.5488 15.0518L82.4523 14.3871" stroke="#EDC240" stroke-width="2" stroke-miterlimit="10" stroke-linecap="round"/>
<path d="M82.4531 14.3873L83.3566 13.9829" stroke="#EDC240" stroke-width="2" stroke-miterlimit="10" stroke-linecap="round"/>
<path d="M83.3555 13.9829L84.2589 14.1799" stroke="#EDC240" stroke-width="2" stroke-miterlimit="10" stroke-linecap="round"/>
<path d="M84.2598 14.1796L85.1632 13.3188" stroke="#EDC240" stroke-width="2" stroke-miterlimit="10" stroke-linecap="round"/>
<path d="M85.1621 13.3188L86.0656 15.9444" stroke="#EDC240" stroke-width="2" stroke-miterlimit="10" stroke-linecap="round"/>
<path d="M86.0662 15.9445L86.9696 16.6353" stroke="#EDC240" stroke-width="2" stroke-miterlimit="10" stroke-linecap="round"/>
<path d="M86.9688 16.6355L87.8722 15.3247" stroke="#EDC240" stroke-width="2" stroke-miterlimit="10" stroke-linecap="round"/>
<path d="M87.873 15.3244L88.7765 13.824" stroke="#EDC240" stroke-width="2" stroke-miterlimit="10" stroke-linecap="round"/>
<path d="M88.7773 13.8242L89.6808 15.8077" stroke="#EDC240" stroke-width="2" stroke-miterlimit="10" stroke-linecap="round"/>
<path d="M89.6797 15.8076L90.5832 16.2848" stroke="#EDC240" stroke-width="2" stroke-miterlimit="10" stroke-linecap="round"/>
<path d="M90.584 16.2847L91.4875 16.0146" stroke="#EDC240" stroke-width="2" stroke-miterlimit="10" stroke-linecap="round"/>
<path d="M91.4863 16.0146L92.3898 17.3437" stroke="#EDC240" stroke-width="2" stroke-miterlimit="10" stroke-linecap="round"/>
<path d="M92.3904 17.3436L93.2939 17.4976" stroke="#EDC240" stroke-width="2" stroke-miterlimit="10" stroke-linecap="round"/>
<path d="M93.2949 17.4976L94.1984 18.5944" stroke="#EDC240" stroke-width="2" stroke-miterlimit="10" stroke-linecap="round"/>
<path d="M94.1975 18.5944L95.101 18.2793" stroke="#EDC240" stroke-width="2" stroke-miterlimit="10" stroke-linecap="round"/>
<path d="M95.1016 18.2793L96.005 18.5615" stroke="#EDC240" stroke-width="2" stroke-miterlimit="10" stroke-linecap="round"/>
<path d="M96.0039 18.5615L96.9074 21.1401" stroke="#EDC240" stroke-width="2" stroke-miterlimit="10" stroke-linecap="round"/>
<path d="M96.9082 21.1401L97.8117 23.005" stroke="#EDC240" stroke-width="2" stroke-miterlimit="10" stroke-linecap="round"/>
<path d="M97.8105 23.0049L98.714 21.4995" stroke="#EDC240" stroke-width="2" stroke-miterlimit="10" stroke-linecap="round"/>
<path d="M98.7148 21.4995L99.6183 20.9781" stroke="#EDC240" stroke-width="2" stroke-miterlimit="10" stroke-linecap="round"/>
<path d="M99.6191 20.978L100.523 20.7271" stroke="#EDC240" stroke-width="2" stroke-miterlimit="10" stroke-linecap="round"/>
<path d="M100.521 20.7271L101.425 18.3267" stroke="#EDC240" stroke-width="2" stroke-miterlimit="10" stroke-linecap="round"/>
<path d="M101.426 18.3267L102.329 19.3518" stroke="#EDC240" stroke-width="2" stroke-miterlimit="10" stroke-linecap="round"/>
<path d="M102.328 19.3521L103.232 19.637" stroke="#EDC240" stroke-width="2" stroke-miterlimit="10" stroke-linecap="round"/>
<path d="M103.232 19.6367L104.136 20.3701" stroke="#EDC240" stroke-width="2" stroke-miterlimit="10" stroke-linecap="round"/>
<path d="M104.135 20.3701L105.038 25.2411" stroke="#EDC240" stroke-width="2" stroke-miterlimit="10" stroke-linecap="round"/>
<path d="M105.039 25.2411L105.943 25.7817" stroke="#EDC240" stroke-width="2" stroke-miterlimit="10" stroke-linecap="round"/>
<path d="M105.943 25.7817L106.847 26.4643" stroke="#EDC240" stroke-width="2" stroke-miterlimit="10" stroke-linecap="round"/>
<path d="M106.846 26.4645L107.749 25.6973" stroke="#EDC240" stroke-width="2" stroke-miterlimit="10" stroke-linecap="round"/>
<path d="M107.75 25.6973L108.653 26.532" stroke="#EDC240" stroke-width="2" stroke-miterlimit="10" stroke-linecap="round"/>
<path d="M108.652 26.5319L109.556 26.0356" stroke="#EDC240" stroke-width="2" stroke-miterlimit="10" stroke-linecap="round"/>
<path d="M109.556 26.0356L110.46 28.8744" stroke="#EDC240" stroke-width="2" stroke-miterlimit="10" stroke-linecap="round"/>
<path d="M110.459 28.8742L111.362 26.0674" stroke="#EDC240" stroke-width="2" stroke-miterlimit="10" stroke-linecap="round"/>
<path d="M111.364 26.0675L112.267 25.8583" stroke="#EDC240" stroke-width="2" stroke-miterlimit="10" stroke-linecap="round"/>
<path d="M112.268 25.8584L113.171 27.7142" stroke="#EDC240" stroke-width="2" stroke-miterlimit="10" stroke-linecap="round"/>
<path d="M113.17 27.7142L114.073 24.7788" stroke="#EDC240" stroke-width="2" stroke-miterlimit="10" stroke-linecap="round"/>
<path d="M114.074 24.7788L114.978 24.8157" stroke="#EDC240" stroke-width="2" stroke-miterlimit="10" stroke-linecap="round"/>
<path d="M114.977 24.8155L115.88 24.4858" stroke="#EDC240" stroke-width="2" stroke-miterlimit="10" stroke-linecap="round"/>
<path d="M115.881 24.4858L116.784 24.6589" stroke="#EDC240" stroke-width="2" stroke-miterlimit="10" stroke-linecap="round"/>
<path d="M116.785 24.6587L117.689 25.5134" stroke="#EDC240" stroke-width="2" stroke-miterlimit="10" stroke-linecap="round"/>
<path d="M117.688 25.5135L118.591 27.6234" stroke="#EDC240" stroke-width="2" stroke-miterlimit="10" stroke-linecap="round"/>
<path d="M118.592 27.6234L119.495 27.5137" stroke="#EDC240" stroke-width="2" stroke-miterlimit="10" stroke-linecap="round"/>
<path d="M119.494 27.5135L120.398 27.1943" stroke="#EDC240" stroke-width="2" stroke-miterlimit="10" stroke-linecap="round"/>
<path d="M120.398 27.1943L121.302 28.1518" stroke="#EDC240" stroke-width="2" stroke-miterlimit="10" stroke-linecap="round"/>
<path d="M121.301 28.1518L122.204 26.5391" stroke="#EDC240" stroke-width="2" stroke-miterlimit="10" stroke-linecap="round"/>
<path d="M122.205 26.5393L123.109 27.3162" stroke="#EDC240" stroke-width="2" stroke-miterlimit="10" stroke-linecap="round"/>
<path d="M123.109 27.3163L124.013 26.8989" stroke="#EDC240" stroke-width="2" stroke-miterlimit="10" stroke-linecap="round"/>
<path d="M124.012 26.8986L124.915 25.1201" stroke="#EDC240" stroke-width="2" stroke-miterlimit="10" stroke-linecap="round"/>
<path d="M124.916 25.1201L125.819 26.0046" stroke="#EDC240" stroke-width="2" stroke-miterlimit="10" stroke-linecap="round"/>
<path d="M125.818 26.005L126.722 24.3257" stroke="#EDC240" stroke-width="2" stroke-miterlimit="10" stroke-linecap="round"/>
<path d="M126.722 24.3255L127.626 24.3167" stroke="#EDC240" stroke-width="2" stroke-miterlimit="10" stroke-linecap="round"/>
<path d="M127.625 24.3169L128.528 23.4492" stroke="#EDC240" stroke-width="2" stroke-miterlimit="10" stroke-linecap="round"/>
<path d="M128.529 23.449L129.433 23.3882" stroke="#EDC240" stroke-width="2" stroke-miterlimit="10" stroke-linecap="round"/>
<path d="M129.434 23.388L130.337 23.1631" stroke="#EDC240" stroke-width="2" stroke-miterlimit="10" stroke-linecap="round"/>
<path d="M130.336 23.1631L131.239 23.2948" stroke="#EDC240" stroke-width="2" stroke-miterlimit="10" stroke-linecap="round"/>
<path d="M131.24 23.295L132.144 23.2729" stroke="#EDC240" stroke-width="2" stroke-miterlimit="10" stroke-linecap="round"/>
<path d="M132.143 23.2732L133.046 22.6982" stroke="#EDC240" stroke-width="2" stroke-miterlimit="10" stroke-linecap="round"/>
<path d="M133.047 22.6981L133.95 23.3477" stroke="#EDC240" stroke-width="2" stroke-miterlimit="10" stroke-linecap="round"/>
<path d="M133.951 23.3477H134.855" stroke="#EDC240" stroke-width="2" stroke-miterlimit="10" stroke-linecap="round"/>
<path d="M134.854 23.3477L135.757 25.979" stroke="#EDC240" stroke-width="2" stroke-miterlimit="10" stroke-linecap="round"/>
<path d="M135.758 25.979H136.661" stroke="#EDC240" stroke-width="2" stroke-miterlimit="10" stroke-linecap="round"/>
<path d="M136.66 25.979L137.564 25.9892" stroke="#EDC240" stroke-width="2" stroke-miterlimit="10" stroke-linecap="round"/>
<path d="M137.564 25.9893L138.468 27.2791" stroke="#EDC240" stroke-width="2" stroke-miterlimit="10" stroke-linecap="round"/>
<path d="M138.467 27.279L139.37 26.5049" stroke="#EDC240" stroke-width="2" stroke-miterlimit="10" stroke-linecap="round"/>
<path d="M139.371 26.5049L140.275 26.1644" stroke="#EDC240" stroke-width="2" stroke-miterlimit="10" stroke-linecap="round"/>
<path d="M140.275 26.1646L141.179 35.6533" stroke="#EDC240" stroke-width="2" stroke-miterlimit="10" stroke-linecap="round"/>
<path d="M141.178 35.6533L142.081 38.1675" stroke="#EDC240" stroke-width="2" stroke-miterlimit="10" stroke-linecap="round"/>
<path d="M142.082 38.1675L142.986 40.9855" stroke="#EDC240" stroke-width="2" stroke-miterlimit="10" stroke-linecap="round"/>
<path d="M142.984 40.9854L143.888 38.8838" stroke="#EDC240" stroke-width="2" stroke-miterlimit="10" stroke-linecap="round"/>
<path d="M143.888 38.8838L144.792 38.9997" stroke="#EDC240" stroke-width="2" stroke-miterlimit="10" stroke-linecap="round"/>
<path d="M144.791 38.9999L145.694 37.3452" stroke="#EDC240" stroke-width="2" stroke-miterlimit="10" stroke-linecap="round"/>
<path d="M145.695 37.3451L146.599 36.9574" stroke="#EDC240" stroke-width="2" stroke-miterlimit="10" stroke-linecap="round"/>
<path d="M146.6 36.9573L147.503 36.2148" stroke="#EDC240" stroke-width="2" stroke-miterlimit="10" stroke-linecap="round"/>
<path d="M147.502 36.2148L148.405 36.5102" stroke="#EDC240" stroke-width="2" stroke-miterlimit="10" stroke-linecap="round"/>
<path d="M148.406 36.5103L149.31 37.7212" stroke="#EDC240" stroke-width="2" stroke-miterlimit="10" stroke-linecap="round"/>
<path d="M149.309 37.7212L150.212 40.4248" stroke="#EDC240" stroke-width="2" stroke-miterlimit="10" stroke-linecap="round"/>
<path d="M150.213 40.4248L151.116 42.3947" stroke="#EDC240" stroke-width="2" stroke-miterlimit="10" stroke-linecap="round"/>
<path d="M151.117 42.395L152.021 45.8726" stroke="#EDC240" stroke-width="2" stroke-miterlimit="10" stroke-linecap="round"/>
<path d="M152.02 45.8723L152.923 45.3578" stroke="#EDC240" stroke-width="2" stroke-miterlimit="10" stroke-linecap="round"/>
<path d="M152.924 45.3579L153.827 45.5025" stroke="#EDC240" stroke-width="2" stroke-miterlimit="10" stroke-linecap="round"/>
<path d="M153.826 45.5026L154.73 43.7183" stroke="#EDC240" stroke-width="2" stroke-miterlimit="10" stroke-linecap="round"/>
<path d="M154.73 43.7183L155.634 45.9852" stroke="#EDC240" stroke-width="2" stroke-miterlimit="10" stroke-linecap="round"/>
<path d="M155.633 45.9849L156.536 46.7653" stroke="#EDC240" stroke-width="2" stroke-miterlimit="10" stroke-linecap="round"/>
<path d="M156.537 46.7655L157.441 48.0799" stroke="#EDC240" stroke-width="2" stroke-miterlimit="10" stroke-linecap="round"/>
</g>
</g>
</g>
</g>
<defs>
<clipPath id="clip0_16301_8040">
<rect width="164" height="53" fill="white"/>
</clipPath>
<clipPath id="clip1_16301_8040">
<rect width="164" height="53" fill="white"/>
</clipPath>
<clipPath id="clip2_16301_8040">
<rect width="164" height="48" fill="white" transform="translate(0 2)"/>
</clipPath>
</defs>
</svg>
