<svg width="164" height="53" viewBox="0 0 164 53" fill="none" xmlns="http://www.w3.org/2000/svg">
<g clip-path="url(#clip0_16301_6130)">
<g clip-path="url(#clip1_16301_6130)">
<g clip-path="url(#clip2_16301_6130)">
<mask id="mask0_16301_6130" style="mask-type:luminance" maskUnits="userSpaceOnUse" x="0" y="2" width="164" height="48">
<path d="M164 2H0V50H164V2Z" fill="white"/>
</mask>
<g mask="url(#mask0_16301_6130)">
<path d="M6.56055 10.3311L7.46946 14.3965" stroke="#EDC240" stroke-width="2" stroke-miterlimit="10" stroke-linecap="round"/>
<path d="M7.46875 14.3967L8.37767 12.4663" stroke="#EDC240" stroke-width="2" stroke-miterlimit="10" stroke-linecap="round"/>
<path d="M8.37891 12.4659L9.28782 12.0771" stroke="#EDC240" stroke-width="2" stroke-miterlimit="10" stroke-linecap="round"/>
<path d="M9.28735 12.0774L10.1963 17.8488" stroke="#EDC240" stroke-width="2" stroke-miterlimit="10" stroke-linecap="round"/>
<path d="M10.1953 17.8486L11.1042 19.6559" stroke="#EDC240" stroke-width="2" stroke-miterlimit="10" stroke-linecap="round"/>
<path d="M11.1055 19.6558L12.0144 21.5935" stroke="#EDC240" stroke-width="2" stroke-miterlimit="10" stroke-linecap="round"/>
<path d="M12.0137 21.5936L12.9226 19.9146" stroke="#EDC240" stroke-width="2" stroke-miterlimit="10" stroke-linecap="round"/>
<path d="M12.9238 19.9146L13.8327 24.8659" stroke="#EDC240" stroke-width="2" stroke-miterlimit="10" stroke-linecap="round"/>
<path d="M13.8318 24.8661L14.7407 17.9175" stroke="#EDC240" stroke-width="2" stroke-miterlimit="10" stroke-linecap="round"/>
<path d="M14.7402 17.9175L15.6491 20.2114" stroke="#EDC240" stroke-width="2" stroke-miterlimit="10" stroke-linecap="round"/>
<path d="M15.6504 20.2112L16.5593 18.1636" stroke="#EDC240" stroke-width="2" stroke-miterlimit="10" stroke-linecap="round"/>
<path d="M16.5586 18.1638L17.4675 20.0664" stroke="#EDC240" stroke-width="2" stroke-miterlimit="10" stroke-linecap="round"/>
<path d="M17.4668 20.0666L18.3757 19.959" stroke="#EDC240" stroke-width="2" stroke-miterlimit="10" stroke-linecap="round"/>
<path d="M18.377 19.959L19.2859 21.4396" stroke="#EDC240" stroke-width="2" stroke-miterlimit="10" stroke-linecap="round"/>
<path d="M19.2854 21.4394L20.1943 19.8232" stroke="#EDC240" stroke-width="2" stroke-miterlimit="10" stroke-linecap="round"/>
<path d="M20.1934 19.8232L21.1023 21.7049" stroke="#EDC240" stroke-width="2" stroke-miterlimit="10" stroke-linecap="round"/>
<path d="M21.1035 21.7047L22.0124 20.1157" stroke="#EDC240" stroke-width="2" stroke-miterlimit="10" stroke-linecap="round"/>
<path d="M22.0117 20.1157L22.9206 20.1108" stroke="#EDC240" stroke-width="2" stroke-miterlimit="10" stroke-linecap="round"/>
<path d="M22.9219 20.1112L23.8308 19.7144" stroke="#EDC240" stroke-width="2" stroke-miterlimit="10" stroke-linecap="round"/>
<path d="M23.8298 19.7141L24.7388 17.2917" stroke="#EDC240" stroke-width="2" stroke-miterlimit="10" stroke-linecap="round"/>
<path d="M24.7383 17.292L25.6472 15.978" stroke="#EDC240" stroke-width="2" stroke-miterlimit="10" stroke-linecap="round"/>
<path d="M25.6484 15.9778L26.5574 15.8667" stroke="#EDC240" stroke-width="2" stroke-miterlimit="10" stroke-linecap="round"/>
<path d="M26.5566 15.8667L27.4656 16.4544" stroke="#EDC240" stroke-width="2" stroke-miterlimit="10" stroke-linecap="round"/>
<path d="M27.4648 16.4545L28.3738 15.9731" stroke="#EDC240" stroke-width="2" stroke-miterlimit="10" stroke-linecap="round"/>
<path d="M28.375 15.9733L29.2839 14.8906" stroke="#EDC240" stroke-width="2" stroke-miterlimit="10" stroke-linecap="round"/>
<path d="M29.2834 14.8904L30.1924 10.677" stroke="#EDC240" stroke-width="2" stroke-miterlimit="10" stroke-linecap="round"/>
<path d="M30.1914 10.6768L31.1003 8.80908" stroke="#EDC240" stroke-width="2" stroke-miterlimit="10" stroke-linecap="round"/>
<path d="M31.1016 8.80926L32.0105 6.03369" stroke="#EDC240" stroke-width="2" stroke-miterlimit="10" stroke-linecap="round"/>
<path d="M32.0098 6.03373L32.9187 3.91992" stroke="#EDC240" stroke-width="2" stroke-miterlimit="10" stroke-linecap="round"/>
<path d="M32.9199 3.91992L33.8288 4.17123" stroke="#EDC240" stroke-width="2" stroke-miterlimit="10" stroke-linecap="round"/>
<path d="M33.8281 4.17114L34.737 8.73788" stroke="#EDC240" stroke-width="2" stroke-miterlimit="10" stroke-linecap="round"/>
<path d="M34.7363 8.73805L35.6452 7.02832" stroke="#EDC240" stroke-width="2" stroke-miterlimit="10" stroke-linecap="round"/>
<path d="M35.6465 7.02832L36.5554 19.937" stroke="#EDC240" stroke-width="2" stroke-miterlimit="10" stroke-linecap="round"/>
<path d="M36.5547 19.9369L37.4636 19.6475" stroke="#EDC240" stroke-width="2" stroke-miterlimit="10" stroke-linecap="round"/>
<path d="M37.4629 19.6475L38.3718 16.9341" stroke="#EDC240" stroke-width="2" stroke-miterlimit="10" stroke-linecap="round"/>
<path d="M38.373 16.934L39.282 16.7354" stroke="#EDC240" stroke-width="2" stroke-miterlimit="10" stroke-linecap="round"/>
<path d="M39.2812 16.7354L40.1902 19.452" stroke="#EDC240" stroke-width="2" stroke-miterlimit="10" stroke-linecap="round"/>
<path d="M40.1895 19.4522L41.0984 17.9473" stroke="#EDC240" stroke-width="2" stroke-miterlimit="10" stroke-linecap="round"/>
<path d="M41.0996 17.9473L42.0085 19.7891" stroke="#EDC240" stroke-width="2" stroke-miterlimit="10" stroke-linecap="round"/>
<path d="M42.0078 19.7888L42.9167 19.3438" stroke="#EDC240" stroke-width="2" stroke-miterlimit="10" stroke-linecap="round"/>
<path d="M42.918 19.3438L43.8269 19.7529" stroke="#EDC240" stroke-width="2" stroke-miterlimit="10" stroke-linecap="round"/>
<path d="M43.8262 19.7532L44.7351 21.0411" stroke="#EDC240" stroke-width="2" stroke-miterlimit="10" stroke-linecap="round"/>
<path d="M44.7344 21.041L45.6433 21.3601" stroke="#EDC240" stroke-width="2" stroke-miterlimit="10" stroke-linecap="round"/>
<path d="M45.6445 21.3599L46.5534 23.2143" stroke="#EDC240" stroke-width="2" stroke-miterlimit="10" stroke-linecap="round"/>
<path d="M46.5527 23.2145L47.4617 18.2983" stroke="#EDC240" stroke-width="2" stroke-miterlimit="10" stroke-linecap="round"/>
<path d="M47.4609 18.2983L48.3699 18.5911" stroke="#EDC240" stroke-width="2" stroke-miterlimit="10" stroke-linecap="round"/>
<path d="M48.3711 18.5912L49.28 17.5229" stroke="#EDC240" stroke-width="2" stroke-miterlimit="10" stroke-linecap="round"/>
<path d="M49.2793 17.523L50.1882 16.2905" stroke="#EDC240" stroke-width="2" stroke-miterlimit="10" stroke-linecap="round"/>
<path d="M50.1895 16.2905L51.0984 15.7969" stroke="#EDC240" stroke-width="2" stroke-miterlimit="10" stroke-linecap="round"/>
<path d="M51.0977 15.7969L52.0066 17.8409" stroke="#EDC240" stroke-width="2" stroke-miterlimit="10" stroke-linecap="round"/>
<path d="M52.0059 17.841L52.9148 16.5112" stroke="#EDC240" stroke-width="2" stroke-miterlimit="10" stroke-linecap="round"/>
<path d="M52.916 16.5108L53.8249 15.6558" stroke="#EDC240" stroke-width="2" stroke-miterlimit="10" stroke-linecap="round"/>
<path d="M53.8242 15.656L54.7331 26.5345" stroke="#EDC240" stroke-width="2" stroke-miterlimit="10" stroke-linecap="round"/>
<path d="M54.7324 26.5342L55.6413 31.177" stroke="#EDC240" stroke-width="2" stroke-miterlimit="10" stroke-linecap="round"/>
<path d="M55.6426 31.1771L56.5515 26.5747" stroke="#EDC240" stroke-width="2" stroke-miterlimit="10" stroke-linecap="round"/>
<path d="M56.551 26.5747L57.4599 25.3296" stroke="#EDC240" stroke-width="2" stroke-miterlimit="10" stroke-linecap="round"/>
<path d="M57.459 25.3295L58.3679 18.5859" stroke="#EDC240" stroke-width="2" stroke-miterlimit="10" stroke-linecap="round"/>
<path d="M58.3691 18.5859L59.2781 23.7166" stroke="#EDC240" stroke-width="2" stroke-miterlimit="10" stroke-linecap="round"/>
<path d="M59.2773 23.7169L60.1863 21.6235" stroke="#EDC240" stroke-width="2" stroke-miterlimit="10" stroke-linecap="round"/>
<path d="M60.1875 21.6234L61.0964 21.3955" stroke="#EDC240" stroke-width="2" stroke-miterlimit="10" stroke-linecap="round"/>
<path d="M61.0955 21.3955L62.0044 19.2893" stroke="#EDC240" stroke-width="2" stroke-miterlimit="10" stroke-linecap="round"/>
<path d="M62.0039 19.2896L62.9128 20.5499" stroke="#EDC240" stroke-width="2" stroke-miterlimit="10" stroke-linecap="round"/>
<path d="M62.9141 20.5496L63.823 19.3828" stroke="#EDC240" stroke-width="2" stroke-miterlimit="10" stroke-linecap="round"/>
<path d="M63.8223 19.383L64.7312 18.9783" stroke="#EDC240" stroke-width="2" stroke-miterlimit="10" stroke-linecap="round"/>
<path d="M64.7305 18.978L65.6394 19.9192" stroke="#EDC240" stroke-width="2" stroke-miterlimit="10" stroke-linecap="round"/>
<path d="M65.6406 19.9192L66.5495 19.4541" stroke="#EDC240" stroke-width="2" stroke-miterlimit="10" stroke-linecap="round"/>
<path d="M66.5491 19.4542L67.458 18.5193" stroke="#EDC240" stroke-width="2" stroke-miterlimit="10" stroke-linecap="round"/>
<path d="M67.457 18.519L68.3659 19.4378" stroke="#EDC240" stroke-width="2" stroke-miterlimit="10" stroke-linecap="round"/>
<path d="M68.3672 19.438L69.2761 20.1627" stroke="#EDC240" stroke-width="2" stroke-miterlimit="10" stroke-linecap="round"/>
<path d="M69.2754 20.1626L70.1843 20.72" stroke="#EDC240" stroke-width="2" stroke-miterlimit="10" stroke-linecap="round"/>
<path d="M70.1855 20.7202L71.0945 21.5483" stroke="#EDC240" stroke-width="2" stroke-miterlimit="10" stroke-linecap="round"/>
<path d="M71.0935 21.5483L72.0024 22.5513" stroke="#EDC240" stroke-width="2" stroke-miterlimit="10" stroke-linecap="round"/>
<path d="M72.002 22.5514L72.9109 20.4902" stroke="#EDC240" stroke-width="2" stroke-miterlimit="10" stroke-linecap="round"/>
<path d="M72.9121 20.4902L73.821 20.5741" stroke="#EDC240" stroke-width="2" stroke-miterlimit="10" stroke-linecap="round"/>
<path d="M73.8203 20.5739L74.7292 19.6265" stroke="#EDC240" stroke-width="2" stroke-miterlimit="10" stroke-linecap="round"/>
<path d="M74.7285 19.6265L75.6374 22.1285" stroke="#EDC240" stroke-width="2" stroke-miterlimit="10" stroke-linecap="round"/>
<path d="M75.6387 22.1284L76.5476 20.4526" stroke="#EDC240" stroke-width="2" stroke-miterlimit="10" stroke-linecap="round"/>
<path d="M76.5471 20.4526L77.456 21.6989" stroke="#EDC240" stroke-width="2" stroke-miterlimit="10" stroke-linecap="round"/>
<path d="M77.4551 21.6992L78.364 22.2194" stroke="#EDC240" stroke-width="2" stroke-miterlimit="10" stroke-linecap="round"/>
<path d="M78.3652 22.219L79.2742 21.959" stroke="#EDC240" stroke-width="2" stroke-miterlimit="10" stroke-linecap="round"/>
<path d="M79.2734 21.959L80.1824 22.4512" stroke="#EDC240" stroke-width="2" stroke-miterlimit="10" stroke-linecap="round"/>
<path d="M80.1836 22.4517L81.0925 23.0868" stroke="#EDC240" stroke-width="2" stroke-miterlimit="10" stroke-linecap="round"/>
<path d="M81.0916 23.0865L82.0005 22.1545" stroke="#EDC240" stroke-width="2" stroke-miterlimit="10" stroke-linecap="round"/>
<path d="M82 22.1547L82.9089 20.9609" stroke="#EDC240" stroke-width="2" stroke-miterlimit="10" stroke-linecap="round"/>
<path d="M82.9102 20.9609L83.8191 21.5993" stroke="#EDC240" stroke-width="2" stroke-miterlimit="10" stroke-linecap="round"/>
<path d="M83.8184 21.5991L84.7273 21.9985" stroke="#EDC240" stroke-width="2" stroke-miterlimit="10" stroke-linecap="round"/>
<path d="M84.7266 21.9985L85.6355 22.2065" stroke="#EDC240" stroke-width="2" stroke-miterlimit="10" stroke-linecap="round"/>
<path d="M85.6367 22.2065L86.5456 23.2702" stroke="#EDC240" stroke-width="2" stroke-miterlimit="10" stroke-linecap="round"/>
<path d="M86.5452 23.27L87.4541 26.2645" stroke="#EDC240" stroke-width="2" stroke-miterlimit="10" stroke-linecap="round"/>
<path d="M87.4531 26.2646L88.362 26.3809" stroke="#EDC240" stroke-width="2" stroke-miterlimit="10" stroke-linecap="round"/>
<path d="M88.3633 26.3809L89.2722 27.3672" stroke="#EDC240" stroke-width="2" stroke-miterlimit="10" stroke-linecap="round"/>
<path d="M89.2715 27.3672L90.1804 31.2129" stroke="#EDC240" stroke-width="2" stroke-miterlimit="10" stroke-linecap="round"/>
<path d="M90.1816 31.2129L91.0906 29.3911" stroke="#EDC240" stroke-width="2" stroke-miterlimit="10" stroke-linecap="round"/>
<path d="M91.0896 29.3912L91.9985 27.2822" stroke="#EDC240" stroke-width="2" stroke-miterlimit="10" stroke-linecap="round"/>
<path d="M91.998 27.2822L92.907 29.0673" stroke="#EDC240" stroke-width="2" stroke-miterlimit="10" stroke-linecap="round"/>
<path d="M92.9082 29.0674L93.8171 29.35" stroke="#EDC240" stroke-width="2" stroke-miterlimit="10" stroke-linecap="round"/>
<path d="M93.8164 29.3499L94.7253 32.2107" stroke="#EDC240" stroke-width="2" stroke-miterlimit="10" stroke-linecap="round"/>
<path d="M94.7246 32.2108L95.6335 29.46" stroke="#EDC240" stroke-width="2" stroke-miterlimit="10" stroke-linecap="round"/>
<path d="M95.6348 29.46L96.5437 31.5718" stroke="#EDC240" stroke-width="2" stroke-miterlimit="10" stroke-linecap="round"/>
<path d="M96.5432 31.5718L97.4521 29.7427" stroke="#EDC240" stroke-width="2" stroke-miterlimit="10" stroke-linecap="round"/>
<path d="M97.4512 29.7427L98.3601 32.6772" stroke="#EDC240" stroke-width="2" stroke-miterlimit="10" stroke-linecap="round"/>
<path d="M98.3613 32.6772L99.2702 29.5938" stroke="#EDC240" stroke-width="2" stroke-miterlimit="10" stroke-linecap="round"/>
<path d="M99.2695 29.5938L100.178 29.7039" stroke="#EDC240" stroke-width="2" stroke-miterlimit="10" stroke-linecap="round"/>
<path d="M100.18 29.7041L101.089 30.7544" stroke="#EDC240" stroke-width="2" stroke-miterlimit="10" stroke-linecap="round"/>
<path d="M101.088 30.7542L101.997 25.9705" stroke="#EDC240" stroke-width="2" stroke-miterlimit="10" stroke-linecap="round"/>
<path d="M101.996 25.9707L102.905 26.7717" stroke="#EDC240" stroke-width="2" stroke-miterlimit="10" stroke-linecap="round"/>
<path d="M102.906 26.7715L103.815 27.3998" stroke="#EDC240" stroke-width="2" stroke-miterlimit="10" stroke-linecap="round"/>
<path d="M103.814 27.3997L104.723 27.8958" stroke="#EDC240" stroke-width="2" stroke-miterlimit="10" stroke-linecap="round"/>
<path d="M104.723 27.896L105.632 36.7376" stroke="#EDC240" stroke-width="2" stroke-miterlimit="10" stroke-linecap="round"/>
<path d="M105.633 36.7373L106.542 37.9252" stroke="#EDC240" stroke-width="2" stroke-miterlimit="10" stroke-linecap="round"/>
<path d="M106.541 37.9254L107.45 37.0615" stroke="#EDC240" stroke-width="2" stroke-miterlimit="10" stroke-linecap="round"/>
<path d="M107.449 37.0615L108.358 37.2008" stroke="#EDC240" stroke-width="2" stroke-miterlimit="10" stroke-linecap="round"/>
<path d="M108.359 37.2008L109.268 36.1177" stroke="#EDC240" stroke-width="2" stroke-miterlimit="10" stroke-linecap="round"/>
<path d="M109.268 36.118L110.176 34.3599" stroke="#EDC240" stroke-width="2" stroke-miterlimit="10" stroke-linecap="round"/>
<path d="M110.178 34.3599L111.087 36.6364" stroke="#EDC240" stroke-width="2" stroke-miterlimit="10" stroke-linecap="round"/>
<path d="M111.086 36.6362L111.995 33.2771" stroke="#EDC240" stroke-width="2" stroke-miterlimit="10" stroke-linecap="round"/>
<path d="M111.994 33.2773L112.903 34.4057" stroke="#EDC240" stroke-width="2" stroke-miterlimit="10" stroke-linecap="round"/>
<path d="M112.904 34.4053L113.813 35.9129" stroke="#EDC240" stroke-width="2" stroke-miterlimit="10" stroke-linecap="round"/>
<path d="M113.812 35.9131L114.721 30.5051" stroke="#EDC240" stroke-width="2" stroke-miterlimit="10" stroke-linecap="round"/>
<path d="M114.721 30.505L115.63 27.3662" stroke="#EDC240" stroke-width="2" stroke-miterlimit="10" stroke-linecap="round"/>
<path d="M115.631 27.3663L116.54 26.7573" stroke="#EDC240" stroke-width="2" stroke-miterlimit="10" stroke-linecap="round"/>
<path d="M116.539 26.7573L117.448 27.352" stroke="#EDC240" stroke-width="2" stroke-miterlimit="10" stroke-linecap="round"/>
<path d="M117.449 27.3521L118.358 27.6269" stroke="#EDC240" stroke-width="2" stroke-miterlimit="10" stroke-linecap="round"/>
<path d="M118.357 27.627L119.266 29.205" stroke="#EDC240" stroke-width="2" stroke-miterlimit="10" stroke-linecap="round"/>
<path d="M119.266 29.2049L120.175 25.1665" stroke="#EDC240" stroke-width="2" stroke-miterlimit="10" stroke-linecap="round"/>
<path d="M120.176 25.1665L121.085 26.0866" stroke="#EDC240" stroke-width="2" stroke-miterlimit="10" stroke-linecap="round"/>
<path d="M121.084 26.0864L121.993 28.4231" stroke="#EDC240" stroke-width="2" stroke-miterlimit="10" stroke-linecap="round"/>
<path d="M121.992 28.4232L122.901 26.4434" stroke="#EDC240" stroke-width="2" stroke-miterlimit="10" stroke-linecap="round"/>
<path d="M122.902 26.4434L123.811 26.7783" stroke="#EDC240" stroke-width="2" stroke-miterlimit="10" stroke-linecap="round"/>
<path d="M123.811 26.7783L124.719 27.1007" stroke="#EDC240" stroke-width="2" stroke-miterlimit="10" stroke-linecap="round"/>
<path d="M124.719 27.1006L125.628 22.0044" stroke="#EDC240" stroke-width="2" stroke-miterlimit="10" stroke-linecap="round"/>
<path d="M125.629 22.0045L126.538 20.79" stroke="#EDC240" stroke-width="2" stroke-miterlimit="10" stroke-linecap="round"/>
<path d="M126.537 20.79L127.446 19.3145" stroke="#EDC240" stroke-width="2" stroke-miterlimit="10" stroke-linecap="round"/>
<path d="M127.447 19.3145L128.356 20.6175" stroke="#EDC240" stroke-width="2" stroke-miterlimit="10" stroke-linecap="round"/>
<path d="M128.355 20.6174L129.264 19.6311" stroke="#EDC240" stroke-width="2" stroke-miterlimit="10" stroke-linecap="round"/>
<path d="M129.264 19.6312L130.173 18.3472" stroke="#EDC240" stroke-width="2" stroke-miterlimit="10" stroke-linecap="round"/>
<path d="M130.174 18.3472L131.083 18.603" stroke="#EDC240" stroke-width="2" stroke-miterlimit="10" stroke-linecap="round"/>
<path d="M131.082 18.603L131.991 20.7442" stroke="#EDC240" stroke-width="2" stroke-miterlimit="10" stroke-linecap="round"/>
<path d="M131.99 20.7441L132.899 21.528" stroke="#EDC240" stroke-width="2" stroke-miterlimit="10" stroke-linecap="round"/>
<path d="M132.9 21.528L133.809 19.9492" stroke="#EDC240" stroke-width="2" stroke-miterlimit="10" stroke-linecap="round"/>
<path d="M133.809 19.9492L134.718 22.7948" stroke="#EDC240" stroke-width="2" stroke-miterlimit="10" stroke-linecap="round"/>
<path d="M134.717 22.795L135.626 20.6323" stroke="#EDC240" stroke-width="2" stroke-miterlimit="10" stroke-linecap="round"/>
<path d="M135.627 20.6323L136.536 23.6648" stroke="#EDC240" stroke-width="2" stroke-miterlimit="10" stroke-linecap="round"/>
<path d="M136.535 23.6648L137.444 22.8247" stroke="#EDC240" stroke-width="2" stroke-miterlimit="10" stroke-linecap="round"/>
<path d="M137.445 22.8247L138.354 21.0552" stroke="#EDC240" stroke-width="2" stroke-miterlimit="10" stroke-linecap="round"/>
<path d="M138.353 21.0549L139.262 21.2127" stroke="#EDC240" stroke-width="2" stroke-miterlimit="10" stroke-linecap="round"/>
<path d="M139.262 21.2129L140.171 20.353" stroke="#EDC240" stroke-width="2" stroke-miterlimit="10" stroke-linecap="round"/>
<path d="M140.172 20.353L141.081 27.5924" stroke="#EDC240" stroke-width="2" stroke-miterlimit="10" stroke-linecap="round"/>
<path d="M141.08 27.5923L141.989 34.3871" stroke="#EDC240" stroke-width="2" stroke-miterlimit="10" stroke-linecap="round"/>
<path d="M141.988 34.3872L142.897 34.4934" stroke="#EDC240" stroke-width="2" stroke-miterlimit="10" stroke-linecap="round"/>
<path d="M142.898 34.4936L143.807 34.2144" stroke="#EDC240" stroke-width="2" stroke-miterlimit="10" stroke-linecap="round"/>
<path d="M143.807 34.214L144.716 33.9763" stroke="#EDC240" stroke-width="2" stroke-miterlimit="10" stroke-linecap="round"/>
<path d="M144.715 33.9764L145.624 32.2139" stroke="#EDC240" stroke-width="2" stroke-miterlimit="10" stroke-linecap="round"/>
<path d="M145.625 32.2139L146.534 31.1313" stroke="#EDC240" stroke-width="2" stroke-miterlimit="10" stroke-linecap="round"/>
<path d="M146.533 31.1312L147.442 29.7002" stroke="#EDC240" stroke-width="2" stroke-miterlimit="10" stroke-linecap="round"/>
<path d="M147.443 29.7002L148.352 30.4746" stroke="#EDC240" stroke-width="2" stroke-miterlimit="10" stroke-linecap="round"/>
<path d="M148.351 30.4749L149.26 32.709" stroke="#EDC240" stroke-width="2" stroke-miterlimit="10" stroke-linecap="round"/>
<path d="M149.26 32.709L150.169 36.9033" stroke="#EDC240" stroke-width="2" stroke-miterlimit="10" stroke-linecap="round"/>
<path d="M150.17 36.9033L151.079 38.5479" stroke="#EDC240" stroke-width="2" stroke-miterlimit="10" stroke-linecap="round"/>
<path d="M151.078 38.5479L151.987 42.9287" stroke="#EDC240" stroke-width="2" stroke-miterlimit="10" stroke-linecap="round"/>
<path d="M151.986 42.9287L152.895 44.4857" stroke="#EDC240" stroke-width="2" stroke-miterlimit="10" stroke-linecap="round"/>
<path d="M152.896 44.4858L153.805 44.4919" stroke="#EDC240" stroke-width="2" stroke-miterlimit="10" stroke-linecap="round"/>
<path d="M153.805 44.4918L154.714 44.1758" stroke="#EDC240" stroke-width="2" stroke-miterlimit="10" stroke-linecap="round"/>
<path d="M154.713 44.1758L155.622 48.08" stroke="#EDC240" stroke-width="2" stroke-miterlimit="10" stroke-linecap="round"/>
<path d="M155.623 48.0799L156.532 48.0518" stroke="#EDC240" stroke-width="2" stroke-miterlimit="10" stroke-linecap="round"/>
<path d="M156.531 48.052L157.44 43.5791" stroke="#EDC240" stroke-width="2" stroke-miterlimit="10" stroke-linecap="round"/>
</g>
</g>
</g>
</g>
<defs>
<clipPath id="clip0_16301_6130">
<rect width="164" height="53" fill="white"/>
</clipPath>
<clipPath id="clip1_16301_6130">
<rect width="164" height="53" fill="white"/>
</clipPath>
<clipPath id="clip2_16301_6130">
<rect width="164" height="48" fill="white" transform="translate(0 2)"/>
</clipPath>
</defs>
</svg>
