<svg width="30" height="30" viewBox="0 0 30 30" fill="none" xmlns="http://www.w3.org/2000/svg">
<path d="M25.6065 25.6066C31.4643 19.7487 31.4643 10.2513 25.6065 4.3934C19.7486 -1.46447 10.2511 -1.46447 4.39328 4.3934C-1.46458 10.2513 -1.46459 19.7487 4.39327 25.6066C10.2511 31.4645 19.7486 31.4645 25.6065 25.6066Z" fill="#866AFA"/>
<path fill-rule="evenodd" clip-rule="evenodd" d="M22.009 7.92893H8.83253C6.60903 7.92893 4.89835 9.65061 4.89835 11.8884V19.1218C4.89835 21.3595 6.60903 23.0812 8.83253 23.0812H22.0052C24.2287 23.0812 26.1116 21.3595 26.1116 19.1218V11.8884C26.1116 9.65061 24.2287 7.92893 22.0052 7.92893H22.009ZM18.9282 15.5051L13.2834 12.235V18.779L18.9282 15.5089V15.5051Z" fill="white"/>
</svg>
