<svg width="30" height="30" viewBox="0 0 30 30" fill="none" xmlns="http://www.w3.org/2000/svg">
<path d="M25.6065 25.6066C31.4643 19.7487 31.4643 10.2513 25.6065 4.3934C19.7486 -1.46447 10.2511 -1.46447 4.39328 4.3934C-1.46458 10.2513 -1.46459 19.7487 4.39327 25.6066C10.2511 31.4645 19.7486 31.4645 25.6065 25.6066Z" fill="#866AFA"/>
<path fill-rule="evenodd" clip-rule="evenodd" d="M14.8641 11.8912C14.0593 7.71939 19.1528 5.23876 22.1539 8.24789C22.1539 8.24789 23.4952 7.87794 24.6722 7.13804C24.6722 7.13804 24.243 8.56498 22.7978 9.46013C22.7978 9.46013 24.4073 9.24873 25.1014 8.82593C25.1014 8.82593 24.4039 10.2529 23.1197 10.7781C23.8171 20.3339 13.3652 26.1408 4.89835 21.3909C4.89835 21.3909 9.0798 21.6023 10.8469 19.5974C10.8469 19.5974 8.27503 19.8088 6.9874 16.7468C6.9874 16.7468 7.95312 17.1167 8.91549 16.6411C8.91549 16.6411 5.91437 16.1654 5.64611 12.6278C5.64611 12.6278 6.61184 13.3677 7.68151 13.1034C7.68151 13.1034 4.35848 11.1513 6.23293 7.61369C6.23293 7.61369 9.77056 12.0498 14.8607 11.8912H14.8641Z" fill="white"/>
</svg>
