<svg width="48" height="48" viewBox="0 0 48 48" fill="none" xmlns="http://www.w3.org/2000/svg">
<g clip-path="url(#clip0_0_10)">
<path d="M44.7837 19.7836L43.2941 21.2374L43.4473 18.6524L36.5953 26.5197L32.7915 24.2145L23.4261 33.4626L19.8037 30.5326L5.63605 44.9998L3 41.4007L19.7998 27.9083L23.4067 30.8523L32.4919 21.5605L36.0814 23.8039L42.5401 17.5004L40.218 17.3314L41.7076 15.8774L45 16.1183L44.7837 19.7836Z" fill="#E01E1E"/>
<path d="M21.3134 24.4928C26.435 24.4928 30.587 20.3303 30.587 15.1956C30.587 10.0609 26.435 5.89844 21.3134 5.89844C16.1917 5.89844 12.0398 10.0609 12.0398 15.1956C12.0398 20.3303 16.1917 24.4928 21.3134 24.4928Z" fill="#FFD550"/>
<path d="M30.6036 5.11202C31.0854 4.62893 31.0854 3.84568 30.6036 3.36259C30.1217 2.8795 29.3404 2.8795 28.8586 3.36259C28.3767 3.84568 28.3767 4.62893 28.8586 5.11202C29.3404 5.59511 30.1217 5.59511 30.6036 5.11202Z" fill="#FFD550"/>
<path d="M12.5943 27.3913C13.3927 27.3913 14.0399 26.7424 14.0399 25.942C14.0399 25.1416 13.3927 24.4927 12.5943 24.4927C11.7959 24.4927 11.1487 25.1416 11.1487 25.942C11.1487 26.7424 11.7959 27.3913 12.5943 27.3913Z" fill="#FFD550"/>
<path d="M32.5913 29.5033C33.1729 29.5033 33.6444 29.0306 33.6444 28.4475C33.6444 27.8643 33.1729 27.3916 32.5913 27.3916C32.0096 27.3916 31.5381 27.8643 31.5381 28.4475C31.5381 29.0306 32.0096 29.5033 32.5913 29.5033Z" fill="#FFD550"/>
<path d="M21.837 20.5385V22.2055H20.797V20.6C19.3772 20.6 18.2238 20.3798 17.3373 19.9393V18.6026C17.7238 18.8638 18.2523 19.0827 18.9222 19.2594C19.5922 19.4361 20.2171 19.5244 20.797 19.5244V15.5913C19.3305 15.0485 18.3806 14.5479 17.9473 14.0895C17.5138 13.6313 17.2974 13.0897 17.2974 12.4648C17.2974 11.7223 17.6273 11.0809 18.2873 10.5405C18.9472 10.0002 19.7837 9.6763 20.797 9.56879V8.18604H21.837V9.53807C23.1434 9.56879 24.0469 9.71226 24.5468 9.96823V11.2742C23.8669 10.8645 22.9634 10.6442 21.837 10.6135V14.6695C23.2235 15.1765 24.1718 15.6669 24.6818 16.1405C25.1917 16.6143 25.4468 17.1533 25.4468 17.7575C25.4468 18.4848 25.1283 19.0955 24.4919 19.5897C23.8552 20.084 22.9703 20.4002 21.8371 20.5384L21.837 20.5385ZM20.797 14.2394V10.6596C20.2371 10.7468 19.7937 10.9374 19.4671 11.2319C19.1404 11.5264 18.9771 11.8837 18.9771 12.3035C18.9771 12.744 19.1104 13.105 19.3771 13.3867C19.6436 13.6683 20.117 13.9525 20.7969 14.2394H20.797ZM21.837 15.9908V19.4631C23.1235 19.2479 23.7669 18.7154 23.7669 17.8653C23.7669 17.1586 23.1235 16.5339 21.837 15.991V15.9908Z" fill="white"/>
</g>
<defs>
<clipPath id="clip0_0_10">
<rect width="42" height="42" fill="white" transform="translate(3 3)"/>
</clipPath>
</defs>
</svg>
